<svg width="585" height="600" viewBox="0 0 585 600" fill="none" xmlns="http://www.w3.org/2000/svg">
<path d="M115.77 175.266C112.678 175.647 109.862 176.01 107.047 176.33C98.5573 177.298 90.0591 178.249 81.5696 179.208C79.8769 179.398 78.1841 179.562 76.5001 179.761C75.0232 179.934 74.0473 179.39 73.4082 177.998C71.9055 174.748 71.5601 171.506 73.0455 168.153C73.676 166.726 74.7469 165.966 76.2496 165.802C83.651 164.998 91.0523 164.116 98.471 163.433C105.346 162.802 112.237 162.387 119.112 161.877C119.76 161.825 120.399 161.739 121.029 161.67C121.409 160.416 121.159 159.509 120.278 158.619C118.516 156.838 116.918 154.893 115.13 153.138C114.509 152.533 113.533 151.971 112.704 151.954C102.09 151.773 91.4669 151.678 80.8528 151.626C79.2637 151.617 77.666 151.868 76.0769 152.067C73.6932 152.36 71.5687 151.107 71.3873 148.747C71.2319 146.759 71.6205 144.702 72.0264 142.723C72.2941 141.417 73.5205 141.115 74.7728 141.106C78.7801 141.072 82.7873 141.02 86.7946 140.977C92.4082 140.916 98.0132 140.83 103.627 140.821C108.688 140.821 113.74 140.968 118.801 140.959C132.731 140.933 146.653 140.856 160.584 140.812C175.015 140.76 189.455 140.743 203.886 140.665C214.855 140.605 225.831 140.518 236.8 140.354C245.807 140.225 254.824 139.931 263.831 139.775C271.993 139.628 280.163 139.559 288.324 139.464C297.738 139.36 307.16 139.248 316.574 139.161C325.037 139.092 333.51 138.989 341.973 139.014C355.705 139.058 369.428 139.308 383.16 139.274C400.295 139.239 417.429 139.014 434.564 138.85C441.974 138.781 449.392 138.677 456.802 138.548C464.307 138.418 471.821 138.133 479.326 138.124C491.348 138.098 503.378 138.245 515.4 138.314C519.355 138.34 523.32 138.358 527.275 138.401C529.158 138.427 531.023 138.496 531.852 140.717C532.742 143.103 532.224 145.307 530.833 147.235C530.419 147.805 529.132 147.909 528.242 147.943C526.826 147.987 525.833 147.995 525.833 149.975C525.824 152.179 524.183 153.527 521.912 153.683C514.225 154.21 506.548 154.763 498.853 155.196C489.957 155.688 481.062 156.095 472.166 156.458C463.521 156.812 454.859 157.054 446.214 157.382C443.373 157.486 440.531 157.694 437.742 157.858C437.327 160.295 437.189 162.724 436.455 164.963C435.859 166.778 436.187 168.23 436.662 169.951C438.752 177.548 440.885 185.146 442.526 192.839C444.685 202.97 447.656 212.729 452.812 221.77C454.963 225.53 456.742 229.506 458.694 233.379C458.918 233.82 459.16 234.243 459.428 234.727C462.286 233.897 465.076 233.413 467.382 235.877C468.85 234.174 468.876 233.189 467.805 231.46C467.261 230.578 466.941 229.558 466.527 228.599C466.026 227.432 465.447 226.291 465.067 225.081C464.851 224.38 464.782 223.525 464.99 222.842C465.249 221.995 465.162 221.424 464.765 220.62C464.212 219.505 464.022 218.2 463.746 216.955C463.608 216.333 463.573 215.668 463.616 215.028C463.668 214.38 463.875 213.74 464.29 213.213C464.031 212.305 463.331 211.207 463.616 210.525C464.152 209.228 465.188 208.096 466.164 207.041C466.475 206.704 467.278 206.79 467.857 206.739C469.645 206.574 471.398 206.488 472.633 204.794C472.935 204.379 473.92 204.405 474.602 204.336C475.543 204.232 476.502 204.223 477.452 204.171C477.46 204.016 477.469 203.86 477.469 203.705C477.642 203.791 477.875 203.834 477.979 203.973C479.136 205.537 480.837 206.341 482.521 207.11C484.421 207.975 484.11 209.876 484.672 211.354C485.155 212.634 485.354 214.025 485.89 215.279C486.382 216.437 486.537 217.319 485.337 218.122C484.862 218.442 484.335 218.987 484.24 219.497C483.8 221.874 483.454 224.268 483.16 226.662C482.919 228.59 482.349 230.362 480.837 231.624C480.198 232.16 480.181 232.532 480.423 233.258C481.096 235.28 482.107 236.758 484.525 236.603C484.914 236.577 485.32 236.707 485.7 236.819C489.543 237.943 492.168 235.946 494.37 233.249C498.3 228.443 502.109 223.533 505.952 218.658C506.815 217.561 507.593 216.376 508.474 215.287C510.831 212.392 511.41 208.925 511.859 205.364C512.852 197.524 513.94 189.702 514.925 181.87C515.02 181.11 514.761 180.237 514.467 179.502C513.362 176.727 511.989 174.048 511.099 171.204C510.607 169.631 510.382 167.669 512.515 166.657C512.818 166.519 513.016 166.052 513.146 165.689C513.794 163.865 514.977 162.664 516.98 162.655C519.062 162.647 520.832 163.606 521.54 165.508C522.205 167.288 522.404 169.276 522.516 171.195C522.594 172.561 522.102 173.961 522.015 175.353C521.955 176.364 522.059 177.402 522.249 178.396C523.112 182.804 524.295 187.169 524.865 191.612C525.565 197.066 525.902 202.572 526.144 208.07C526.437 214.596 524.684 220.664 521.031 226.075C517.196 231.762 513.379 237.467 509.225 242.913C504.268 249.422 501.858 256.734 501.547 264.764C501.236 272.872 501.167 280.989 501.064 289.097C500.986 295.104 500.805 301.12 501.055 307.119C501.418 315.668 502.23 324.199 502.679 332.748C502.99 338.651 502.998 344.572 503.162 350.476C503.352 357.287 503.629 364.099 503.75 370.91C503.879 378.378 503.965 385.846 503.896 393.315C503.819 400.982 503.724 408.649 503.275 416.299C502.722 425.625 502.808 435.03 500.606 444.201C500.278 445.558 499.889 446.915 499.319 448.177C498.11 450.856 498.516 453 500.718 454.902C501.202 455.317 501.694 455.827 501.927 456.406C503.24 459.708 502.515 460.373 499.595 460.356C495.536 460.339 491.469 460.416 487.418 460.295C486.555 460.27 485.233 459.768 484.983 459.137C484.724 458.489 485.432 457.374 485.89 456.561C486.166 456.069 486.719 455.636 487.254 455.412C488.791 454.763 488.955 453.605 488.575 452.231C487.954 449.992 487.073 447.805 486.675 445.532C485.829 440.709 485.13 435.859 484.551 431.002C483.86 425.141 483.255 419.263 482.815 413.377C482.409 407.983 482.323 402.572 481.995 397.178C481.373 387.039 480.855 376.883 479.974 366.761C479.084 356.605 477.875 346.465 476.649 336.344C476.381 334.148 475.491 332.022 474.844 329.878C474.697 329.394 474.36 328.97 474.11 328.512C473.954 328.53 473.799 328.538 473.643 328.555C473.514 329.195 473.28 329.826 473.272 330.466C473.142 337.882 473.116 345.307 472.944 352.724C472.702 363.087 472.313 373.451 472.071 383.824C471.838 393.738 471.64 403.661 471.562 413.584C471.484 423.559 471.173 433.508 470.042 443.431C469.835 445.247 469.938 447.019 468.358 448.514C467.762 449.076 468.263 450.718 468.125 451.859C467.969 453.199 468.72 453.83 469.714 454.47C470.828 455.187 471.735 456.146 471.743 457.607C471.752 458.921 471.13 459.725 469.783 459.751C465.629 459.82 461.466 459.915 457.312 459.846C456.517 459.829 455.386 459.267 455.058 458.627C454.781 458.083 455.187 456.665 455.731 456.311C458.124 454.746 457.856 452.447 457.709 450.182C457.675 449.612 457.251 448.834 456.776 448.566C455.619 447.918 454.989 446.993 454.747 445.765C453.736 440.726 452.674 435.695 451.75 430.639C449.954 420.862 449.608 410.948 449.22 401.042C448.96 394.438 448.71 387.826 448.606 381.213C448.434 370.538 448.252 359.855 448.321 349.171C448.399 337.701 448.434 326.222 449.107 314.786C449.703 304.595 449.185 294.482 448.745 284.325C448.546 279.718 448.624 275.102 448.304 270.504C447.898 264.669 447.225 258.852 446.611 253.026C446.516 252.153 446.154 251.306 445.886 250.381C445.497 250.528 445.186 250.58 444.953 250.735C438.26 255.247 430.824 256.138 422.991 255.481C420.797 255.299 418.5 255.619 416.324 256.077C413.612 256.648 411.755 258.463 411.315 261.246C410.589 265.784 409.907 270.34 409.527 274.912C408.896 282.424 409.311 289.926 410.105 297.412C410.693 302.935 411.332 308.45 412.049 313.956C413.154 322.436 414.311 330.907 415.529 339.369C416.401 345.454 417.438 351.522 418.353 357.599C418.673 359.725 418.889 361.869 419.096 364.004C419.338 366.519 418.258 368.498 416.099 369.613C411.712 371.869 407.247 373.979 402.747 375.993C401.59 376.511 401.141 376.909 401.391 378.214C403.041 386.841 403.715 395.571 403.887 404.327C404.043 412.296 404.138 420.266 404.025 428.227C403.956 433.128 403.36 438.02 403.17 442.921C403.032 446.465 403.136 450.018 403.205 453.571C403.214 454.081 403.568 454.591 403.784 455.083C404.025 455.628 404.388 456.129 404.561 456.7C405.407 459.509 404.613 460.702 401.737 460.771C398.68 460.849 395.622 460.823 392.565 460.78C390.838 460.754 390.104 460.036 390.432 458.316C390.691 456.942 391.503 455.68 392.004 454.34C392.245 453.692 392.505 452.983 392.47 452.317C392.073 444.901 389.551 437.856 388.67 430.526C387.945 424.519 387.167 418.503 386.753 412.469C386.183 404.128 385.889 395.77 385.604 387.411C385.518 384.827 385.82 382.225 385.95 379.502H380.396C380.776 382.069 381.303 384.559 381.493 387.074C381.847 391.819 382.08 396.565 382.219 401.319C382.486 410.386 382.771 419.454 382.823 428.521C382.849 432.869 382.961 437.363 381.934 441.521C381.027 445.195 382.02 448.678 381.562 452.222C381.485 452.793 381.865 453.441 382.115 454.02C382.409 454.703 382.901 455.308 383.125 456.008C384.119 458.99 383.03 460.537 379.956 460.486C377.305 460.442 374.653 460.347 372.002 460.192C370.335 460.088 369.687 459.129 370.015 457.469C370.102 457.028 370.154 456.518 370.413 456.19C371.769 454.478 371.259 452.637 371.026 450.744C370.853 449.326 370.775 447.822 371.06 446.431C371.63 443.578 370.646 440.968 370.059 438.323C367.528 427.025 365.939 415.598 365.127 404.068C364.505 395.208 364.704 386.339 365.637 377.505C365.792 376.036 365.481 375.215 364.056 374.471C360.749 372.751 357.337 371.161 354.66 368.386C351.853 365.473 350.264 362.361 351.81 358.247C352.276 357.002 352.51 355.654 352.76 354.331C354.289 346.137 356.033 337.969 357.242 329.722C358.512 321.07 359.531 312.357 360.144 303.635C360.559 297.758 360.075 291.819 360.023 285.898C359.989 282.89 360.049 279.882 359.997 276.874C359.816 266.752 359.704 256.63 359.358 246.509C359.151 240.501 358.184 234.615 355.904 228.953C353.399 222.73 352.82 216.048 351.905 209.479C350.48 199.288 350.912 189.062 352.276 178.923C352.976 173.762 354.669 168.732 355.886 163.641C356.102 162.733 356.215 161.808 356.396 160.762C350.998 160.935 345.808 161.099 340.626 161.272C336.524 161.41 332.421 161.532 328.328 161.713C319.484 162.093 310.64 162.543 301.788 162.88C298.999 162.984 296.2 162.845 293.411 162.776C292.495 162.75 291.632 163.667 291.589 164.885C291.485 167.988 291.399 171.092 291.278 174.195C291.243 175.085 291.131 175.975 291.036 176.995C293.342 176.952 295.389 177.341 297.574 175.811C303.619 171.584 307.454 172.016 313.611 177.834C314.751 178.906 315.416 180.461 316.435 181.689C317.04 182.415 317.817 183.184 318.672 183.469C322.239 184.68 323.638 188.128 321.73 191.387C320.261 193.894 318.05 195.121 315.157 195.13C306.486 195.139 297.824 195.13 288.972 195.13C288.644 197.057 288.385 198.812 288.039 200.55C286.079 210.542 283.997 220.517 282.175 230.535C280.888 237.614 279.722 244.702 279.48 251.946C279.152 261.99 279.765 271.965 280.836 281.914C281.389 287.013 282.503 292.053 283.16 297.144C283.911 302.996 284.749 308.865 284.973 314.751C285.388 325.72 285.604 336.707 285.491 347.676C285.388 357.685 284.956 367.703 284.291 377.695C283.712 386.322 282.624 394.922 281.7 403.523C280.361 415.927 277.028 427.924 274.1 440C273.53 442.36 272.442 444.598 271.613 446.898C271.328 447.693 271.043 448.488 270.835 449.309C270.291 451.41 270.499 453.38 271.509 455.377C272.58 457.512 272.312 458.065 269.972 458.359C267.2 458.705 264.384 458.878 261.595 458.774C258.986 458.679 258.244 456.985 259.574 454.729C259.902 454.176 260.273 453.622 260.731 453.164C262.484 451.392 262.484 449.862 260.783 448.082C260.42 447.701 260.161 447.036 260.17 446.5C260.316 436.983 260.541 427.458 260.688 417.941C260.748 413.731 260.636 409.522 260.662 405.312C260.748 392.623 260.938 379.934 260.93 367.254C260.921 359.396 260.446 351.557 259.349 343.751C258.529 337.865 257.25 332.169 254.711 326.783C254.366 326.049 253.891 325.366 253.373 324.476C251.378 327.25 250.376 330.155 249.832 333.128C249.193 336.655 248.692 340.251 248.614 343.829C248.295 357.815 248.07 371.8 247.992 385.786C247.932 396.47 248.191 407.145 248.251 417.829C248.303 426.948 248.251 436.067 248.269 445.186C248.269 446.638 247.984 447.84 246.507 448.523C246.222 448.652 245.911 449.24 245.971 449.551C246.23 450.9 246.662 452.213 246.965 453.553C247.232 454.703 247.699 455.904 247.535 457.011C247.431 457.702 246.377 458.696 245.669 458.765C242.802 459.051 239.909 459.206 237.033 459.077C234.986 458.982 234.174 457.59 234.813 455.585C235.193 454.392 235.858 453.233 236.61 452.222C237.637 450.83 237.663 449.508 236.212 448.842C234.779 448.186 234.174 447.088 233.984 445.713C233.043 439.032 232.067 432.359 231.264 425.66C230.4 418.511 229.683 411.337 228.932 404.18C228.275 397.956 227.645 391.742 227.04 385.518C226.427 379.191 225.745 372.872 225.313 366.536C224.89 360.339 224.596 354.132 224.527 347.926C224.424 339.11 224.519 330.284 224.648 321.468C224.795 311.544 225.762 301.699 227.49 291.914C227.956 289.252 227.602 286.434 227.481 283.694C227.256 278.491 226.945 273.296 226.626 268.101C226.35 263.606 226.47 259.025 225.572 254.651C223.819 246.102 221.695 237.614 219.337 229.212C216.133 217.785 213.697 206.22 212.005 194.49C211.201 188.898 210.398 183.305 209.759 177.695C209.483 175.318 209.604 172.898 209.552 170.495C209.535 169.855 209.552 169.207 209.552 168.36C208.498 168.472 207.531 168.637 206.572 168.68C201.226 168.931 195.872 169.069 190.526 169.389C180.292 170.011 170.058 170.633 159.841 171.437C151.921 172.06 144.019 172.985 136.108 173.754C133.517 174.005 130.926 174.16 128.344 174.437C127.895 174.48 127.196 174.826 127.109 175.154C125.537 181.196 123.957 187.229 122.566 193.306C121.47 198.138 122.186 202.797 124.276 207.326C128.266 215.987 131.73 224.916 136.946 232.964C137.654 234.062 138.647 235.03 139.675 235.851C140.046 236.153 141.256 236.11 141.463 235.799C142.041 234.952 143.043 233.75 141.972 232.843C138.509 229.887 138.034 225.521 136.575 221.666C136.03 220.24 136.1 218.321 136.566 216.843C137.24 214.691 138.302 212.564 139.615 210.723C141.851 207.594 147.344 206.505 151.118 208.381C153.018 209.323 154.789 210.628 156.43 212.003C158.416 213.662 158.243 216.178 158.295 218.434C158.425 223.464 156.766 227.916 153.485 231.771C152.267 233.206 152.88 234.935 154.711 235.54C154.944 235.617 155.212 235.6 155.445 235.669C161.845 237.692 168.227 239.896 173.625 243.933C180.231 248.877 184.109 255.697 185.776 263.831C187.382 271.705 188.436 279.588 188.16 287.662C187.805 297.939 185.474 307.629 180.439 316.618C179.471 318.347 178.254 319.929 177.33 321.675C176.967 322.358 176.958 323.335 177.062 324.13C178.193 332.402 179.445 340.657 180.508 348.938C180.965 352.507 181.155 356.12 181.268 359.716C181.596 370.279 182.036 380.85 182.002 391.422C181.985 397.706 181.268 404.007 180.672 410.282C180.076 416.558 179.489 422.851 178.418 429.048C177.45 434.589 175.827 440.008 174.488 445.48C174.367 445.964 174.203 446.431 174.074 446.915C173.59 448.652 172.916 450.295 174.497 452.006C175.188 452.749 175.24 454.141 175.447 455.265C175.628 456.267 175.058 456.985 174.065 457.045C170.878 457.244 167.691 457.365 164.505 457.469C163.46 457.504 163.002 456.898 162.967 455.853C162.907 453.942 163.278 452.188 164.427 450.614C164.703 450.234 164.876 449.577 164.764 449.128C162.484 440.155 161.87 430.967 161.361 421.779C160.808 411.778 160.35 401.777 159.824 391.776C159.383 383.478 159.064 375.171 158.373 366.891C157.578 357.313 155.747 347.892 153.476 338.556C152.82 335.851 151.921 333.197 150.971 330.578C150.721 329.895 149.961 329.117 149.296 328.962C148.89 328.867 148.095 329.8 147.707 330.414C145.79 333.456 145.556 336.957 145.427 340.397C144.943 353.51 144.606 366.631 144.183 379.744C143.812 391.154 143.397 402.572 142.983 413.982C142.629 423.456 140.901 432.756 139.226 442.057C138.786 444.512 138.207 446.949 137.818 449.413C137.715 450.07 138.026 450.822 138.25 451.487C138.44 452.041 138.889 452.507 139.062 453.061C139.934 455.965 139.217 456.916 136.212 457.071C133.811 457.192 131.419 457.391 129.018 457.512C127.135 457.607 126.323 456.942 126.496 455.075C126.608 453.839 127.092 452.568 127.696 451.479C128.076 450.787 128.215 450.329 127.93 449.594C125.097 442.23 123.62 434.537 122.385 426.783C120.796 416.826 120.209 406.79 120.122 396.712C120.07 390.592 119.855 384.472 120.01 378.361C120.191 371.403 120.64 364.453 121.107 357.512C121.772 347.676 122.497 337.839 123.309 328.02C123.603 324.484 124.458 320.992 124.648 317.457C124.872 313.368 124.7 309.254 124.605 305.157C124.527 301.708 124.251 298.259 124.181 294.801C123.991 285.881 123.957 276.952 123.698 268.04C123.456 259.837 123.154 251.626 122.601 243.44C122.221 237.796 120.183 232.549 117.713 227.484C114.569 221.018 111.477 214.527 108.325 208.07C106.097 203.506 106.503 198.873 107.781 194.17C109.37 188.31 111.693 182.761 114.612 177.445C115.001 176.805 115.321 176.148 115.77 175.266ZM360.291 233.405C362.89 241.452 363.555 249.707 363.745 257.97C364.013 269.25 363.901 280.548 363.892 291.828C363.884 303.644 362.398 315.348 360.852 327.017C359.367 338.176 357.812 349.361 354.772 360.261C354.496 361.246 354.841 362.802 355.498 363.571C358.348 366.882 361.465 369.951 365.473 371.887C371.786 374.938 378.548 375.958 385.457 376.07C393.852 376.209 401.676 373.814 409.104 370.106C411.081 369.112 412.817 367.599 414.596 366.225C416.177 364.998 416.514 363.329 416.203 361.367C414.113 347.848 411.945 334.338 410.071 320.793C408.87 312.158 407.964 303.48 407.195 294.793C406.185 283.4 407.126 272.051 408.68 260.754C409.233 256.734 411.971 253.752 415.987 253.009C417.55 252.723 419.174 252.819 420.763 252.646C421.143 252.602 421.765 252.214 421.782 251.946C421.98 249.11 422.075 246.258 422.214 243.233C419.692 243.025 417.282 242.524 414.916 242.697C409.535 243.094 404.172 243.864 398.8 244.391C397.185 244.546 396.184 245.169 395.225 246.543C391.166 252.309 383.35 252.196 379.775 246.379C378.98 245.082 378.168 244.088 376.657 243.587C375.862 243.328 375.033 242.645 374.584 241.927C372.96 239.36 371.423 236.724 369.972 234.053C368.962 232.186 368.133 230.224 367.191 228.21C364.765 230.051 362.528 231.728 360.291 233.405ZM263.408 445.783C264.16 445.878 264.842 445.981 265.533 446.042C268.849 446.344 269.082 446.189 270.145 443.051C270.309 442.576 270.473 442.109 270.594 441.616C273.124 431.417 276.207 421.338 277.667 410.888C278.798 402.754 280.137 394.62 280.741 386.434C281.51 375.993 281.778 365.516 281.976 355.049C282.158 345.575 282.322 336.084 281.821 326.628C281.26 315.875 279.981 305.165 278.954 294.438C278.738 292.174 278.271 289.926 277.909 287.558C262.398 292.597 246.999 295.545 230.918 291.776C230.763 292.338 230.521 292.952 230.443 293.591C229.58 300.904 228.379 308.199 227.999 315.538C227.507 325.141 227.455 334.779 227.619 344.4C227.775 353.164 228.232 361.938 228.992 370.668C229.83 380.245 231.264 389.779 232.248 399.348C233.069 407.274 233.742 415.218 234.235 423.17C234.684 430.44 235.651 437.623 237.05 444.763C237.162 445.324 237.914 446.146 238.406 446.18C240.185 446.284 241.973 446.128 243.76 446.025C244.78 445.964 245.203 445.368 245.203 444.339C245.203 442.636 245.375 440.933 245.332 439.231C245.108 429.256 244.745 419.289 244.624 409.314C244.52 400.489 244.59 391.664 244.719 382.838C244.866 372.509 245.272 362.188 245.332 351.868C245.375 345.29 245.375 338.712 246.904 332.281C247.621 329.29 248.51 326.274 249.849 323.525C251.127 320.897 254.046 320.664 255.938 322.911C257.466 324.718 258.848 326.783 259.729 328.962C262.311 335.358 262.873 342.247 263.287 349.007C263.944 359.699 264.013 370.435 264.116 381.162C264.22 391.292 264.108 401.423 263.978 411.553C263.857 421.727 263.598 431.901 263.408 442.074C263.391 443.267 263.408 444.46 263.408 445.783ZM501.297 381.421C500.597 360.788 500.165 345.307 499.518 329.835C499.198 322.28 498.507 314.734 497.955 307.188C497.825 305.468 497.644 305.459 495.873 305.693C490.812 306.341 485.76 307.231 480.673 307.456C471.916 307.854 463.15 307.871 454.384 307.923C452.752 307.931 452.32 308.493 452.294 309.954C452.234 313.057 452.078 316.169 451.957 319.272C451.37 334.753 451.223 350.243 451.655 365.732C452.044 379.614 452.208 393.496 452.545 407.378C452.855 420.093 454.548 432.644 457.191 445.074C457.424 446.18 458.106 446.595 459.108 446.535C461.051 446.422 462.995 446.18 464.938 446.102C466.354 446.042 466.993 445.428 467.088 444.002C467.52 437.554 468.228 431.123 468.418 424.674C468.764 413.247 468.738 401.812 468.98 390.384C469.239 378.058 469.567 365.732 469.99 353.406C470.266 345.549 470.733 337.692 471.208 329.835C471.277 328.754 471.709 327.535 472.356 326.671C473.945 324.571 476.856 325.063 477.469 327.613C478.92 333.69 480.587 339.775 481.33 345.964C482.47 355.455 482.979 365.032 483.627 374.575C484.292 384.42 484.94 394.283 485.337 404.137C485.898 418.079 487.591 431.909 489.258 445.739C489.379 446.759 489.88 447.364 490.847 447.382C492.591 447.416 494.327 447.295 496.072 447.295C497.177 447.295 497.462 446.656 497.644 445.713C499.06 438.314 499.898 430.855 500.105 423.317C500.563 407.637 501.003 391.958 501.297 381.421ZM176.336 318.753C176.483 318.753 176.621 318.753 176.768 318.753C176.993 318.434 177.26 318.131 177.442 317.785C181.959 309.237 184.886 300.308 185.31 290.48C185.81 279.078 184.377 268.092 180.326 257.452C177.649 250.416 172.986 245.247 165.878 242.437C162.432 241.08 159.064 239.542 155.609 238.211C154.944 237.96 153.908 238.055 153.295 238.418C150.963 239.81 148.501 240.562 145.841 240.086C143.587 239.689 141.394 238.963 139.174 238.375C137.231 237.856 135.892 236.629 134.847 234.909C129.752 226.593 126.125 217.561 122.083 208.744C120.502 205.295 119.656 201.57 119.967 197.775C120.295 193.842 120.779 189.892 121.634 186.054C122.895 180.392 124.561 174.817 126.012 169.199C126.142 168.689 126.185 167.911 125.9 167.574C125.131 166.692 124.164 165.983 123.145 165.101C121.893 167.816 120.71 170.348 119.544 172.889C116.279 179.977 112.799 186.979 110.726 194.559C109.474 199.167 109.353 203.627 111.503 208.026C113.611 212.348 115.701 216.679 117.635 221.07C119.889 226.196 122.446 231.252 124.017 236.594C126.289 244.313 126.556 252.404 126.746 260.425C126.85 264.782 126.574 269.147 126.625 273.503C126.712 281.473 126.876 289.442 127.092 297.412C127.213 301.665 127.455 305.917 127.757 310.161C127.921 312.452 129.018 313.749 131.021 314.12C133.137 314.509 135.27 314.924 137.412 314.985C145.677 315.184 153.942 315.322 162.207 315.322C165.247 315.322 168.287 314.907 171.319 314.596C172.847 314.44 173.555 313.55 173.469 311.925C173.236 307.473 173.115 303.013 172.89 298.562C172.51 290.903 172.182 283.245 171.647 275.595C171.319 270.953 170.593 266.337 170.144 261.696C170.075 260.961 170.585 260.174 170.826 259.414C171.267 260.053 171.915 260.641 172.113 261.35C173.789 267.271 174.307 273.382 174.609 279.485C175.162 290.644 175.473 301.82 175.913 312.988C176 314.898 176.198 316.826 176.336 318.753ZM440.687 241.149C440.531 240.795 440.454 240.562 440.341 240.354C434.78 230.526 431.394 219.912 428.907 208.969C427.292 201.872 426.523 194.655 426.143 187.42C425.85 181.68 425.919 175.923 425.927 170.175C425.927 169.173 426.445 168.17 426.644 167.15C426.756 166.571 426.903 165.897 426.713 165.369C426.065 163.537 425.133 161.799 424.589 159.941C424.226 158.705 423.639 158.446 422.481 158.489C419.234 158.627 415.978 158.679 412.731 158.722C405.019 158.835 397.306 158.904 389.603 159.033C384.896 159.111 380.198 159.267 375.5 159.405C372.451 159.5 369.402 159.699 366.354 159.699C364.471 159.699 363.935 159.881 363.815 161.713C363.538 165.957 363.167 170.21 363.245 174.454C363.365 181.309 363.659 188.163 364.169 195C364.566 200.385 365.265 205.753 366.043 211.095C367.355 220.05 370.188 228.555 374.049 236.724C374.636 237.977 375.353 239.222 376.251 240.259C378.116 242.42 379.887 242.118 381.295 239.602C381.778 238.738 381.683 238.332 380.785 237.709C379.17 236.586 377.512 235.349 376.303 233.828C373.012 229.653 371.734 224.769 372.08 219.479C372.295 216.126 373.254 213.1 376.121 210.948C376.458 210.689 376.545 209.894 376.501 209.366C376.363 207.689 376.89 206.35 378.134 205.217C381.243 202.399 387.789 201.855 391.226 204.206C392.643 205.174 393.61 206.358 393.627 208.268C393.645 209.703 394.059 211.086 395.743 211.717C396.425 211.977 397.073 212.668 397.453 213.325C399.129 216.212 399.837 219.367 399.491 222.686C398.921 228.253 396.702 233.059 392.591 236.94C392.349 237.173 392.22 237.925 392.392 238.124C394.154 240.121 396.115 241.815 399.042 241.547C401.08 241.357 403.127 241.193 405.157 240.89C412.852 239.741 420.512 240.104 428.121 241.556C432.284 242.36 436.412 242.697 440.687 241.149ZM242.741 290.799C242.75 290.67 242.767 290.54 242.776 290.41C249.037 290.497 255.117 289.278 261.223 288.103C266.457 287.091 271.492 285.509 276.492 283.711C277.667 283.288 278.004 282.648 277.77 281.473C277.442 279.804 277.114 278.128 276.959 276.433C276.535 271.792 276.259 267.141 275.827 262.508C274.998 253.657 275.249 244.849 277.537 236.231C280.914 223.482 283.306 210.542 285.163 197.498C286.381 188.915 287.53 180.323 288.704 171.74C289.006 169.51 289.369 167.28 289.525 165.041C289.645 163.243 287.892 163.848 286.977 163.442C286.839 163.381 286.07 164.177 285.975 164.652C284.835 170.754 283.764 176.866 282.667 182.968C280.802 193.367 279.049 203.808 275.378 213.749C273.392 219.134 270.818 224.303 268.322 229.489C267.053 232.134 264.989 234.174 261.966 234.805C260.912 235.021 260.714 235.479 260.74 236.421C260.809 239.568 259.608 242.325 257.76 244.754C254.012 249.69 248.182 249.543 244.546 244.529C242.724 242.022 242.042 239.11 241.42 236.153C241.325 235.713 240.928 235.038 240.608 234.995C236.532 234.485 234.217 231.823 232.689 228.391C230.858 224.277 228.802 220.188 227.654 215.875C224.7 204.854 222.282 193.704 219.484 182.64C218.205 177.6 216.539 172.665 215.07 167.677C214.69 166.372 213.637 166.433 212.799 166.7C212.307 166.856 211.728 167.746 211.737 168.308C211.763 171.463 211.728 174.644 212.125 177.756C212.834 183.418 213.827 189.045 214.699 194.68C215.442 199.53 215.856 204.457 216.988 209.211C219.276 218.84 221.815 228.426 224.527 237.951C226.989 246.604 229.053 255.273 229.26 264.332C229.424 271.541 229.882 278.75 230.253 285.959C230.357 288.016 231.134 289.036 233.155 289.399C236.307 289.97 239.529 290.341 242.741 290.799ZM218.085 168.438C218.473 169.57 218.853 170.478 219.104 171.42C221.427 180.245 223.759 189.071 226.021 197.905C228.146 206.211 229.821 214.656 233.285 222.557C234.52 225.383 235.504 228.357 237.715 230.665C239.382 232.402 241.368 232.86 242.733 231.581C244.356 230.059 245.315 228.184 245.35 225.876C245.367 224.787 244.952 224.363 243.881 224.337C242.18 224.294 240.487 224.182 238.795 224.026C236.938 223.853 236.135 223.136 235.789 221.632C234.692 216.774 234.64 211.933 235.72 207.05C236.748 202.391 238.484 198.415 243.052 195.977C249.642 192.459 256.18 193.41 260.722 199.339C264.341 204.068 266.396 209.556 266.966 215.512C267.2 217.932 267.113 220.396 267.01 222.833C266.958 223.966 266.146 224.51 264.92 224.493C262.13 224.441 259.349 224.476 256.43 224.476C256.49 226.956 256.888 229.074 258.373 230.855C259.841 232.609 261.586 232.774 263.365 231.356C265.351 229.783 266.422 227.587 267.485 225.366C271.449 217.102 274.756 208.623 276.475 199.573C278.142 190.799 279.826 182.026 281.527 173.261C282.123 170.201 282.788 167.15 283.462 163.943C261.655 165.447 239.986 166.934 218.085 168.438ZM74.246 147.866C74.7382 147.926 75.0319 147.987 75.3255 147.995C83.0896 148.168 90.8451 148.436 98.6091 148.488C113.645 148.592 128.681 148.574 143.725 148.609C144.727 148.609 145.72 148.661 146.722 148.644C151.127 148.574 155.54 148.402 159.945 148.436C164.755 148.471 169.557 148.782 174.367 148.791C183.384 148.799 192.409 148.687 201.425 148.609C217.307 148.479 233.19 148.41 249.072 148.185C261.543 148.013 274.005 147.589 286.476 147.408C292.331 147.321 298.195 147.632 304.051 147.58C312.618 147.503 321.177 147.2 329.744 147.114C347.734 146.949 365.723 146.811 383.713 146.768C395.139 146.742 406.565 146.958 417.982 146.984C425.495 147.001 433.018 146.889 440.531 146.785C447.294 146.69 454.056 146.543 460.818 146.388C475.137 146.068 489.456 145.662 503.784 145.419C510.9 145.298 518.017 145.471 525.133 145.48C525.859 145.48 526.645 145.35 527.301 145.065C528.234 144.659 529.071 142.723 528.519 141.988C528.173 141.521 527.18 141.366 526.48 141.366C517.162 141.426 507.843 141.599 498.525 141.616C491.115 141.633 483.696 141.357 476.286 141.417C469.524 141.469 462.77 141.927 456.008 141.953C443.83 141.997 431.653 141.737 419.476 141.815C406.556 141.901 393.636 142.308 380.707 142.463C370.732 142.584 360.766 142.507 350.791 142.541C341.222 142.576 331.644 142.584 322.075 142.705C307.195 142.887 292.323 143.198 277.442 143.38C269.972 143.466 262.501 143.354 255.04 143.405C230.633 143.552 206.227 143.743 181.82 143.898C175.81 143.933 169.799 143.89 163.788 143.907C153.562 143.933 143.337 143.976 133.111 144.002C131.807 144.002 130.512 143.933 129.208 143.959C123.801 144.08 118.395 144.33 112.989 144.322C102.314 144.304 91.6482 144.149 80.9737 144.054C78.7369 144.036 76.5087 144.054 74.246 144.054V147.866ZM131.375 151.928C131.747 152.551 131.945 152.931 132.187 153.285C133.647 155.438 135.236 157.512 136.54 159.76C137.62 161.618 138.958 161.99 141.005 161.774C147.413 161.091 153.839 160.546 160.264 160.088C166.197 159.664 172.148 159.457 178.081 159.085C183.47 158.748 188.842 158.273 194.231 157.927C197.426 157.72 200.63 157.676 203.826 157.495C204.517 157.452 205.19 157.14 205.873 156.95C205.588 156.293 205.355 155.611 204.992 155.005C204.69 154.495 204.154 154.124 203.869 153.605C203.075 152.136 201.891 151.764 200.268 151.773C185.197 151.859 170.135 151.876 155.065 151.885C147.612 151.894 140.159 151.833 132.706 151.816C132.377 151.807 132.04 151.868 131.375 151.928ZM250.842 207.05C250.842 207.127 250.842 207.197 250.842 207.274C252.846 207.274 254.85 207.274 256.853 207.274C258.684 207.274 258.857 207.413 258.667 209.245C258.295 212.945 258.736 216.843 256.188 220.041C256.067 220.188 256.024 220.404 255.972 220.603C255.497 222.462 256.223 223.412 258.14 223.378C260.144 223.335 262.139 223.222 264.142 223.196C265.084 223.188 265.559 222.764 265.593 221.865C265.636 220.811 265.628 219.765 265.636 218.71C265.688 212.15 263.952 206.073 260.135 200.766C253.52 191.569 241.74 195.26 238.596 202.719C236.169 208.467 236.299 214.561 237.015 220.62C237.102 221.321 237.983 222.315 238.665 222.488C240.487 222.954 242.405 223.11 244.287 223.283C245.263 223.369 245.85 222.73 245.678 221.77C245.47 220.603 245.28 219.333 244.693 218.339C242.854 215.209 242.845 211.847 243.026 208.415C243.078 207.43 243.493 207.006 244.529 207.032C246.636 207.093 248.744 207.05 250.842 207.05ZM360.04 155.126C359.902 155.152 359.755 155.187 359.617 155.213C359.522 156.086 359.453 156.959 359.332 157.823C358.892 161.134 358.754 164.531 357.907 167.746C356.353 173.676 354.867 179.597 354.72 185.751C354.565 192.459 354.306 199.175 354.608 205.866C354.815 210.542 355.757 215.209 356.629 219.834C357.26 223.196 358.322 226.472 359.298 230.206C361.284 228.702 362.847 227.466 364.454 226.308C365.421 225.617 365.594 224.795 365.309 223.698C364.765 221.563 364.212 219.419 363.849 217.258C360.982 200.264 359.548 183.158 360.317 165.914C360.438 163.122 360.809 160.295 362.873 158.005C361.932 157.037 360.99 156.086 360.04 155.126ZM209.569 164.877C208.878 163.839 208.144 162.897 207.6 161.851C207.021 160.736 206.348 160.27 205.018 160.512C203.446 160.788 201.822 160.736 200.225 160.857C183.245 162.085 166.266 163.329 149.287 164.548C146.351 164.756 143.406 164.842 140.478 164.98C140.064 168.498 139.856 168.671 136.35 169.32C133.569 169.83 130.918 169.648 128.336 168.049C128.241 169.086 128.154 169.907 128.094 170.573C155.229 168.671 182.287 166.778 209.569 164.877ZM121.461 164.816C120.761 164.868 120.269 164.903 119.785 164.946C115.355 165.404 110.925 165.888 106.494 166.312C97.1323 167.202 87.7619 168.04 78.4001 168.939C75.5673 169.216 75.0664 169.847 75.1787 172.768C75.2046 173.555 75.4378 174.342 75.5846 175.128C75.8005 176.269 76.4396 176.675 77.6228 176.511C85.6028 175.431 93.5914 174.368 101.58 173.339C106.779 172.665 111.996 172.068 117.203 171.42C117.497 171.385 117.903 171.213 118.032 170.971C119.164 169 120.261 166.986 121.461 164.816ZM218.041 164.626C218.093 164.782 218.154 164.937 218.205 165.084C240.064 163.641 261.931 162.206 283.79 160.762C283.583 159.483 283.384 158.221 283.194 157.037C262.458 158.065 241.852 159.077 220.986 160.114C222.299 163.347 220.14 163.96 218.041 164.626ZM282.866 153.735C282.4 151.315 281.7 150.64 279.575 150.701C275.033 150.839 270.481 151.159 265.939 151.185C250.367 151.289 234.787 151.297 219.216 151.358C218.093 151.366 216.979 151.505 215.589 151.608C216.504 153.087 217.281 154.331 218.041 155.55C219.959 154.737 220.442 154.884 221.6 156.354C221.824 156.639 222.325 156.89 222.679 156.873C232.006 156.345 241.334 155.749 250.67 155.239C258.71 154.798 266.75 154.435 274.791 154.055C277.46 153.925 280.154 153.839 282.866 153.735ZM497.695 152.188C496.409 149.62 494.604 148.583 491.995 149.154C491.754 149.205 491.495 149.171 491.244 149.18C475.034 149.793 458.832 150.398 442.621 151.021C440.454 151.107 438.286 151.289 436.127 151.427C436.714 152.637 437.206 153.657 437.699 154.677C457.675 153.856 477.65 153.026 497.695 152.188ZM395.674 228.642C393.411 227.544 391.105 226.697 389.119 225.375C387.064 224.009 385.328 222.176 383.307 220.43C382.011 223.585 379.766 225.729 376.778 227.19C376.38 227.389 376.052 228.383 376.173 228.884C376.76 231.321 378.116 233.353 379.895 235.107C382.763 237.934 387.78 238.159 390.855 235.566C393.092 233.69 394.379 231.14 395.674 228.642ZM145.297 219.618C143.924 219.678 141.972 219.808 140.029 219.851C139.183 219.868 138.889 220.188 138.915 221.027C139.001 224.389 139.934 227.449 142.085 230.059C144.002 232.385 146.515 232.661 149.184 231.78C152.034 230.837 154.461 229.333 155.177 226.083C155.221 225.885 155.246 225.686 155.246 225.487C155.22 224.389 155.117 223.283 155.151 222.185C155.212 220.586 154.504 219.67 152.915 219.635C150.565 219.575 148.216 219.618 145.297 219.618ZM424.874 153.769C423.38 151.816 423.38 151.807 420.953 151.911C417.058 152.075 413.154 152.421 409.259 152.395C396.374 152.3 383.609 154.106 370.775 154.746C369.307 154.815 368.711 155.602 368.167 156.933C368.988 156.933 369.67 156.959 370.352 156.933C378.997 156.605 387.642 156.198 396.296 155.965C404.846 155.732 413.405 155.645 421.963 155.567C423.388 155.55 424.476 155.317 424.874 153.769ZM299.076 154.539C317.8 153.536 337.085 152.499 356.327 151.47C356.387 149.897 355.567 150.001 354.798 150.001C350.342 150.027 345.885 150.035 341.429 150.087C328.457 150.251 315.494 150.433 302.531 150.597C301.529 150.614 300.527 150.597 299.525 150.597H295.501C296.719 151.946 297.712 153.035 299.076 154.539ZM356.802 154.642C355.567 154.642 354.522 154.599 353.485 154.651C335.634 155.541 317.783 156.509 299.931 157.244C297.712 157.339 296.995 158.377 296.08 160.002C316.254 159.224 336.256 158.446 356.284 157.676C356.465 156.579 356.629 155.645 356.802 154.642ZM424.874 243.604C424.874 246.457 424.882 249.041 424.874 251.634C424.874 252.559 425.28 252.991 426.23 253.017C429.84 253.13 433.458 253.303 436.93 252.049C439.625 251.081 442.259 249.957 445.065 248.851C443.891 246.794 442.932 245.117 441.939 243.38C436.291 245.463 430.695 244.797 424.874 243.604ZM468.686 223.628C472.633 221.502 476.493 220.992 480.336 224.104C480.535 221.312 480.639 218.719 480.509 216.134C480.405 214.155 478.799 212.85 476.778 212.729C475.284 212.642 473.799 212.513 472.313 212.366C470.327 212.167 469.463 212.668 468.79 214.578C467.745 217.5 468.055 220.456 468.686 223.628ZM136.108 165.508C136.1 165.413 136.126 165.292 136.082 165.222C133.258 161.091 130.434 156.95 127.576 152.836C127.342 152.499 126.885 152.118 126.513 152.11C124.095 152.049 121.677 152.075 119.224 152.075C119.267 152.473 119.233 152.602 119.285 152.663C122.748 156.682 126.159 160.754 129.717 164.695C131.22 166.337 133.975 166.536 136.108 165.508ZM387.081 248.047C389.3 248.056 392.09 246.31 393.144 244.434C393.55 243.717 393.394 243.267 392.833 242.757C391.788 241.824 390.708 240.907 389.793 239.862C388.402 238.262 386.615 239.032 385.008 239.032C384.525 239.032 384.032 240.164 383.575 240.795C382.987 241.599 382.374 242.403 381.89 243.276C381.675 243.665 381.536 244.348 381.726 244.685C382.935 246.768 384.784 247.918 387.081 248.047ZM426.014 155.057C426.014 156.008 425.841 156.7 426.04 157.261C427.024 159.976 428.086 162.664 429.2 165.335C429.33 165.637 429.891 165.888 430.28 165.94C431.118 166.061 431.981 166.121 432.819 166.035C433.19 165.992 433.778 165.594 433.838 165.274C434.425 162.344 434.961 159.405 435.401 156.449C435.496 155.792 435.151 155.075 434.944 154.055C432.741 158.178 429.244 158.575 426.014 155.057ZM515.918 178.352C516.946 177.92 517.568 177.592 518.224 177.393C519.45 177.021 519.934 176.321 519.839 174.981C519.675 172.846 519.796 170.677 519.615 168.542C519.545 167.643 519.209 166.631 518.656 165.948C518.198 165.387 517.145 164.859 516.514 165.006C515.806 165.162 515.201 166.044 514.7 166.718C514.087 167.548 513.621 168.49 513.094 169.38C512.852 169.363 512.619 169.345 512.377 169.328C513.543 172.302 514.709 175.275 515.918 178.352ZM470.076 233.387C470.025 233.552 469.878 233.966 469.757 234.399C468.815 237.787 468.833 237.761 471.726 239.844C472.728 240.562 473.73 240.925 474.93 240.631C476.908 240.147 478.393 238.902 479.68 237.407C479.87 237.191 479.965 236.732 479.879 236.465C479.525 235.393 479.084 234.347 478.652 233.258C477.253 233.75 475.992 234.191 474.844 234.589C474.446 234.217 474.161 233.699 473.799 233.647C472.615 233.474 471.406 233.465 470.076 233.387ZM522.62 148.721H504.173C503.819 149.75 503.525 150.606 503.197 151.539C509.208 151.323 515.201 151.124 521.186 150.874C522.542 150.822 522.957 149.966 522.62 148.721ZM216.556 160.581C215.036 157.754 213.576 155.04 212.1 152.343C211.979 152.127 211.659 151.911 211.426 151.902C210.122 151.859 208.818 151.885 207.436 151.885C207.548 152.222 207.557 152.335 207.617 152.404C209.267 154.599 210.994 156.734 212.54 158.99C213.499 160.408 214.647 160.97 216.556 160.581ZM401.175 446.517C399.448 446.751 398.066 446.932 396.693 447.122C394.698 447.399 394.551 447.537 394.905 449.56C395.035 450.32 395.406 451.513 395.899 451.652C397.436 452.067 399.085 452.067 400.856 452.248C400.968 450.26 401.063 448.54 401.175 446.517ZM373.047 446.751C373.211 448.281 373.297 449.612 373.539 450.908C373.608 451.271 374.152 451.79 374.506 451.807C376.121 451.902 377.754 451.85 379.481 451.85C379.481 450.355 379.567 449.059 379.429 447.779C379.386 447.408 378.747 446.828 378.35 446.802C376.717 446.681 375.068 446.751 373.047 446.751ZM460.775 236.542C461.423 237.614 462.062 238.556 462.58 239.55C462.9 240.155 462.969 240.899 463.288 241.495C463.919 242.653 465.128 242.74 466.855 242.031C468.15 241.495 467.503 240.631 467.287 239.922C466.371 236.776 464.186 235.652 460.775 236.542ZM143.527 237.208C145.487 237.208 147.241 237.554 148.795 237.139C152.276 236.214 151.844 236.309 150.721 233.413C148.596 233.699 146.498 233.975 144.192 234.286C144.028 235.004 143.812 235.955 143.527 237.208ZM245.341 456.561C244.9 454.616 243.847 453.38 242.12 452.784C240.22 452.127 237.991 453.493 237.888 455.386C237.87 455.766 238.233 456.509 238.44 456.509C240.712 456.587 242.983 456.561 245.341 456.561ZM367.191 150.156L367.045 150.761C367.347 150.952 367.666 151.306 367.96 151.297C374.757 151.081 381.554 150.822 388.359 150.571L388.333 150.156H367.191ZM165.394 455.585C167.907 455.377 170.317 455.187 172.744 454.988C172.096 452.11 172.096 452.11 169.332 452.162C168.935 452.17 168.538 452.162 168.132 452.162C165.774 452.162 165.178 452.845 165.394 455.585ZM465.672 452.689V449.292C463.651 449.413 461.734 449.525 459.704 449.646C459.894 450.908 460.067 452.023 460.24 453.199C462.096 453.026 463.832 452.862 465.672 452.689ZM136.22 454.91C136.307 452.784 135.771 452.239 133.906 452.343C132.965 452.395 132.015 452.343 131.073 452.369C129.346 452.412 128.586 453.562 129.147 455.42C131.445 455.256 133.776 455.083 136.22 454.91ZM490.536 450.934C490.7 451.885 490.847 452.724 490.976 453.484C493.084 453.32 494.949 453.173 496.797 453.026V450.485C494.681 450.632 492.686 450.779 490.536 450.934ZM426.454 150.519C428.112 153.856 429.745 156.095 431.843 154.236C430.133 150.398 429.857 150.199 426.454 150.519ZM269.29 456.242C268.115 454.642 267.035 453.562 265.282 453.718C263.857 453.839 262.881 454.668 262.113 456.242H269.29ZM359.591 150.208C361.845 151.937 362.312 155.126 365.516 155.187C363.832 153.363 364.065 149.439 359.591 150.208ZM285.206 150.692C286.467 153.51 288.79 156.285 289.956 156.224C289.222 154.755 288.428 153.38 287.832 151.92C287.322 150.666 286.588 150.208 285.206 150.692ZM470.905 225.072C470.905 225.236 470.897 225.4 470.897 225.573C473.09 226.429 475.241 226.55 477.314 225.072H470.905ZM249.365 216.402C250.661 217.465 251.421 217.431 252.293 216.402H249.365Z" fill="black"/>
<path d="M158.615 103.048C156.792 102.624 154.59 102.071 152.362 101.63C151.654 101.492 150.868 101.587 150.134 101.699C147.102 102.157 144.14 102.045 141.359 100.636C138.414 99.1322 138.095 96.8761 140.435 94.525C141.61 93.3495 142.991 92.7185 144.658 92.4851C145.496 92.3641 146.36 91.8368 147.042 91.275C148.51 90.0648 150.194 89.5635 152.025 89.4943C155.385 89.3733 158.554 90.0389 161.534 91.6985C162.363 92.1566 163.529 92.0356 164.548 92.1566C165.481 92.2604 166.508 92.1048 167.32 92.4678C167.976 92.7617 168.693 93.5915 168.814 94.2916C169.021 95.4672 169.453 96.297 170.421 96.9799C171.319 97.6109 172.122 98.6222 171.509 99.6508C171.016 100.481 169.971 101.094 169.039 101.501C168.356 101.803 167.45 101.552 166.664 101.682C165.403 101.89 164.168 102.235 162.916 102.46C161.655 102.685 160.376 102.814 158.615 103.048Z" fill="black"/>
<path d="M486.641 100.998C483.618 101.171 480.604 101.456 477.581 101.482C476.061 101.499 474.524 101.128 473.022 100.782C469.973 100.082 466.907 99.4076 463.927 98.4481C462.52 97.9987 461.181 97.0651 460.067 96.0711C459.126 95.2154 459.376 93.962 460.076 92.8988C461.691 90.4613 464.221 89.6228 466.89 89.3808C468.962 89.1906 471.07 89.5191 473.168 89.5105C473.902 89.5105 474.766 89.3808 475.345 88.9832C479.585 86.0702 484.007 86.1307 488.627 87.8854C490.234 88.4905 491.961 88.7844 493.585 89.3462C495.442 89.9945 497.359 90.5996 499.052 91.5677C500.563 92.4234 501.098 94.0312 500.597 95.7599C500.105 97.4887 498.87 98.4309 497.117 98.8976C495.511 99.3212 493.999 100.134 492.393 100.54C490.519 101.007 488.584 101.206 486.667 101.525C486.676 101.344 486.658 101.171 486.641 100.998ZM477.452 90.7465C477.867 91.1269 478.221 91.3084 478.359 91.6023C478.566 92.0258 478.627 92.5271 478.747 92.9939C478.264 93.089 477.772 93.2532 477.288 93.2446C476.968 93.2359 476.64 92.9939 476.329 92.847C472.892 91.2479 469.325 91.3084 465.75 92.1555C464.817 92.3716 463.919 92.9593 463.133 93.5558C462.079 94.351 462.209 94.9733 463.392 95.5179C463.755 95.6821 464.152 95.7599 464.532 95.8723C467.555 96.7367 470.595 97.5319 473.583 98.5C475.5 99.1224 477.331 99.4076 479.3 98.7248C480.224 98.4049 481.269 98.3444 482.262 98.3617C484.715 98.4222 487.159 98.6902 489.612 98.6642C490.432 98.6556 491.262 98.0332 492.073 97.6443C492.851 97.2726 493.567 96.754 494.371 96.4687C495.018 96.2353 495.804 96.3736 496.426 96.1143C497.013 95.8723 497.791 95.3796 497.894 94.8783C497.989 94.3942 497.471 93.5298 496.979 93.2359C496.012 92.6568 494.915 92.2333 493.818 91.9826C491.642 91.4899 489.5 91.0923 487.392 90.1587C484.188 88.7498 480.803 88.6893 477.452 90.7465Z" fill="black"/>
<path d="M371.345 116.584C367.675 116.584 363.987 116.722 360.334 116.506C359.185 116.437 357.855 115.642 357.018 114.778C355.213 112.902 355.446 111.104 357.311 109.289C357.873 108.736 358.469 108.139 358.797 107.448C359.816 105.269 361.569 104.327 363.84 104.414C366.276 104.5 368.711 104.673 371.13 105.01C373.099 105.287 374.377 106.592 375.215 108.39C375.456 108.9 375.966 109.418 376.484 109.643C377.831 110.214 378.565 111.061 378.557 112.582C378.548 114.259 377.926 115.607 376.346 116.126C374.757 116.645 373.064 116.809 371.415 117.137C371.38 116.947 371.363 116.766 371.345 116.584Z" fill="black"/>
<path d="M259.064 113.878C253.71 113.878 248.355 113.913 242.992 113.852C241.506 113.835 239.995 113.645 238.536 113.342C235.314 112.677 234.312 111.043 234.986 107.827C236.169 102.192 239.347 98.933 245.021 98.5786C247.336 98.4317 249.055 97.6537 250.877 96.556C255.446 93.7986 258.917 95.2767 263.037 99.1145C263.434 99.4862 263.84 99.9011 264.099 100.377C265.127 102.321 266.561 103.627 268.599 104.655C271.561 106.151 271.172 110.619 267.968 112.564C266.837 113.247 265.36 113.515 264.013 113.671C262.381 113.852 260.714 113.714 259.056 113.714V113.878H259.064ZM250.091 99.2442C250.842 100.1 251.628 100.817 252.198 101.69C252.509 102.166 252.457 102.875 252.561 103.48C251.974 103.281 251.335 103.177 250.825 102.866C249.685 102.183 248.709 101.042 247.5 100.722C242.318 99.3738 236.981 103.86 237.283 109.228C237.318 109.816 238.026 110.68 238.596 110.861C239.866 111.268 241.239 111.492 242.577 111.501C249.538 111.562 256.508 111.57 263.469 111.484C264.617 111.466 265.818 111.043 266.897 110.593C268.055 110.109 268.288 109.012 268.262 107.819C268.236 106.661 267.58 105.995 266.604 105.779C264.773 105.381 263.97 104.188 263.227 102.572C260.714 97.1437 254.306 95.5792 250.091 99.2442Z" fill="black"/>
<path d="M323.025 232.575C321.462 232.048 320.296 232.998 318.992 233.292C317.221 233.69 315.278 233.379 313.413 233.292C312.48 233.249 311.556 233.042 310.632 232.921C310.088 232.852 309.501 232.912 309 232.739C307.903 232.359 306.823 231.875 306.737 230.466C306.651 229.126 307.514 228.538 308.585 228.054C310.33 227.268 312.057 226.429 313.776 225.573C315.183 224.873 316.436 224.951 317.861 225.772C318.975 226.412 320.391 226.507 321.661 226.896C323.068 227.328 324.588 227.605 325.832 228.339C327.49 229.316 327.274 230.959 325.521 231.754C324.718 232.134 323.828 232.324 323.025 232.575ZM308.507 230.267C308.507 230.449 308.507 230.621 308.507 230.803C309.129 230.967 309.751 231.192 310.39 231.296C311.781 231.529 313.231 231.572 314.579 231.944C316.09 232.367 317.463 232.488 318.94 231.797C319.821 231.382 320.84 231.261 321.816 231.045C322.999 230.786 324.2 230.578 325.746 230.276C324.2 228.426 322.498 228.227 320.762 228.011C319.303 227.829 317.869 227.432 316.41 227.224C315.701 227.121 314.89 227.043 314.259 227.294C312.705 227.916 311.219 228.728 309.725 229.489C309.302 229.705 308.913 230.008 308.507 230.267Z" fill="black"/>
<path d="M83.9359 216.661C81.4659 216.333 78.9095 216.056 76.3704 215.624C75.1872 215.425 74.2027 214.742 74.1422 213.359C74.0904 212.037 75.0059 211.458 76.0681 210.974C77.7263 210.222 79.3586 209.426 80.9909 208.614C82.4763 207.879 83.8236 207.741 85.335 208.761C86.2245 209.366 87.4681 209.435 88.5563 209.738C90.0331 210.152 91.579 210.403 92.9436 211.06C93.6 211.371 94.2477 212.443 94.2304 213.152C94.2131 213.731 93.2804 214.431 92.6068 214.803C91.9418 215.166 91.0954 215.287 90.3181 215.295C88.9968 215.313 87.805 215.425 86.6304 216.203C85.9654 216.644 84.9204 216.514 83.9359 216.661ZM75.7572 213.731C76.6036 213.912 77.2686 214.085 77.9422 214.198C79.2981 214.431 80.6454 214.69 82.01 214.829C83.2622 214.958 84.5491 215.114 85.7841 214.95C87.2954 214.76 88.7636 214.258 90.2491 213.878C91.1127 213.653 91.9677 213.402 93.0559 213.1C91.5013 211.259 89.6877 211.181 87.9172 210.922C86.5095 210.714 85.1277 210.377 83.7286 210.118C83.245 210.031 82.6577 209.833 82.2691 210.014C80.2481 210.93 78.2704 211.95 76.2927 212.962C76.1459 213.031 76.0768 213.256 75.7572 213.731Z" fill="black"/>
<path d="M211.858 79.3464C209.725 78.5685 207.531 77.9375 205.493 76.978C204.128 76.3297 203.981 73.849 205.372 72.9932C207.28 71.8177 209.448 71.0311 211.573 70.2791C212.462 69.9679 217.592 72.8722 218.128 73.6934C219.043 75.1023 218.68 76.2952 217.316 77.2633C215.684 78.4042 214.026 79.3378 211.858 79.3464ZM206.287 74.8171C208.567 75.7247 210.415 76.5545 212.324 77.1682C212.877 77.3497 213.715 77.0731 214.276 76.7446C215.053 76.2865 215.684 75.5864 216.375 74.9813C215.597 74.5405 214.639 74.2552 214.077 73.6242C212.298 71.5929 210.467 72.345 208.61 73.3217C207.876 73.7107 207.203 74.2207 206.287 74.8171Z" fill="black"/>
<path d="M360.291 233.405C362.528 231.728 364.765 230.043 367.191 228.219C368.141 230.233 368.962 232.195 369.972 234.062C371.423 236.733 372.961 239.369 374.584 241.936C375.042 242.654 375.862 243.337 376.657 243.596C378.168 244.089 378.98 245.091 379.775 246.388C383.35 252.197 391.166 252.309 395.225 246.552C396.192 245.178 397.194 244.556 398.801 244.4C404.181 243.881 409.536 243.103 414.916 242.706C417.274 242.533 419.683 243.034 422.205 243.242C422.076 246.267 421.972 249.111 421.773 251.955C421.756 252.223 421.126 252.612 420.754 252.655C419.165 252.828 417.541 252.733 415.978 253.018C411.962 253.761 409.233 256.743 408.672 260.763C407.109 272.06 406.176 283.409 407.186 294.802C407.955 303.489 408.862 312.167 410.062 320.802C411.945 334.347 414.104 347.857 416.194 361.376C416.496 363.338 416.16 365.007 414.588 366.234C412.817 367.609 411.081 369.121 409.095 370.115C401.668 373.823 393.843 376.218 385.449 376.088C378.54 375.976 371.777 374.956 365.464 371.904C361.448 369.968 358.331 366.9 355.489 363.589C354.824 362.82 354.487 361.255 354.764 360.279C357.804 349.379 359.358 338.194 360.844 327.035C362.39 315.365 363.875 303.662 363.884 291.846C363.892 280.557 364.005 269.268 363.737 257.988C363.556 249.707 362.891 241.452 360.291 233.405Z" fill="white"/>
<path d="M263.408 445.783C263.408 444.461 263.391 443.268 263.408 442.075C263.598 431.901 263.857 421.728 263.978 411.554C264.099 401.423 264.211 391.293 264.116 381.162C264.013 370.444 263.944 359.708 263.287 349.007C262.873 342.248 262.311 335.359 259.729 328.962C258.848 326.784 257.466 324.71 255.938 322.903C254.038 320.656 251.127 320.898 249.849 323.517C248.51 326.266 247.621 329.282 246.904 332.273C245.375 338.704 245.375 345.273 245.332 351.86C245.263 362.18 244.857 372.51 244.719 382.83C244.598 391.656 244.52 400.481 244.624 409.306C244.745 419.281 245.108 429.248 245.332 439.223C245.367 440.925 245.203 442.628 245.203 444.331C245.203 445.36 244.779 445.956 243.76 446.017C241.973 446.12 240.176 446.276 238.406 446.172C237.914 446.146 237.154 445.316 237.05 444.755C235.651 437.623 234.684 430.432 234.234 423.162C233.742 415.21 233.06 407.266 232.248 399.34C231.264 389.771 229.83 380.246 228.992 370.66C228.232 361.93 227.774 353.156 227.619 344.392C227.455 334.771 227.507 325.133 227.999 315.53C228.379 308.191 229.579 300.896 230.443 293.583C230.521 292.952 230.763 292.339 230.918 291.777C247.008 295.545 262.398 292.598 277.909 287.559C278.271 289.927 278.738 292.166 278.954 294.439C279.981 305.166 281.259 315.876 281.821 326.629C282.313 336.076 282.149 345.576 281.976 355.049C281.778 365.517 281.51 376.002 280.741 386.435C280.145 394.612 278.807 402.746 277.667 410.888C276.207 421.33 273.124 431.417 270.594 441.617C270.473 442.101 270.3 442.576 270.144 443.052C269.082 446.19 268.849 446.345 265.533 446.043C264.842 445.982 264.159 445.878 263.408 445.783Z" fill="white"/>
<path d="M501.297 381.421C501.003 391.958 500.563 407.638 500.14 423.326C499.932 430.855 499.095 438.315 497.678 445.722C497.497 446.665 497.212 447.304 496.106 447.304C494.362 447.304 492.617 447.425 490.881 447.391C489.914 447.374 489.413 446.777 489.292 445.748C487.625 431.918 485.933 418.088 485.371 404.146C484.974 394.283 484.326 384.429 483.661 374.584C483.014 365.041 482.504 355.464 481.364 345.973C480.621 339.793 478.955 333.708 477.504 327.622C476.89 325.072 473.98 324.58 472.391 326.68C471.743 327.545 471.303 328.755 471.242 329.844C470.759 337.692 470.292 345.55 470.025 353.415C469.601 365.742 469.273 378.068 469.014 390.394C468.772 401.821 468.79 413.256 468.453 424.684C468.263 431.132 467.555 437.571 467.123 444.011C467.028 445.437 466.389 446.051 464.972 446.111C463.029 446.189 461.086 446.431 459.143 446.544C458.141 446.604 457.459 446.189 457.217 445.083C454.574 432.653 452.89 420.102 452.579 407.387C452.234 393.505 452.078 379.623 451.69 365.742C451.258 350.252 451.405 334.762 451.992 319.281C452.113 316.178 452.268 313.075 452.329 309.963C452.355 308.494 452.786 307.941 454.419 307.932C463.185 307.889 471.959 307.863 480.708 307.465C485.795 307.232 490.847 306.35 495.908 305.702C497.67 305.477 497.86 305.486 497.98 307.197C498.533 314.743 499.233 322.289 499.544 329.844C500.157 345.308 500.597 360.789 501.297 381.421Z" fill="white"/>
<path d="M176.336 318.753C176.198 316.826 176 314.898 175.922 312.962C175.481 301.794 175.171 290.626 174.618 279.459C174.316 273.356 173.806 267.245 172.122 261.324C171.923 260.615 171.276 260.027 170.835 259.388C170.593 260.148 170.084 260.935 170.153 261.67C170.593 266.311 171.327 270.927 171.655 275.569C172.191 283.219 172.519 290.877 172.899 298.535C173.124 302.987 173.236 307.447 173.478 311.899C173.564 313.524 172.847 314.414 171.327 314.57C168.296 314.881 165.256 315.287 162.216 315.296C153.951 315.296 145.686 315.157 137.421 314.959C135.288 314.907 133.146 314.492 131.03 314.103C129.035 313.731 127.93 312.443 127.766 310.144C127.463 305.9 127.221 301.647 127.101 297.394C126.885 289.425 126.721 281.455 126.634 273.486C126.582 269.129 126.859 264.764 126.755 260.408C126.565 252.386 126.297 244.296 124.026 236.577C122.454 231.235 119.898 226.178 117.644 221.053C115.709 216.653 113.619 212.322 111.512 208.009C109.361 203.609 109.482 199.149 110.735 194.542C112.799 186.953 116.288 179.96 119.552 172.872C120.718 170.331 121.893 167.798 123.154 165.084C124.164 165.966 125.14 166.674 125.909 167.556C126.194 167.885 126.159 168.671 126.021 169.181C124.57 174.8 122.903 180.375 121.642 186.037C120.787 189.883 120.295 193.833 119.976 197.758C119.665 201.552 120.511 205.286 122.091 208.726C126.133 217.552 129.761 226.585 134.856 234.891C135.91 236.603 137.24 237.83 139.183 238.357C141.402 238.954 143.596 239.671 145.85 240.069C148.51 240.544 150.98 239.792 153.303 238.401C153.916 238.038 154.953 237.943 155.618 238.193C159.072 239.524 162.449 241.063 165.886 242.42C172.994 245.229 177.658 250.398 180.335 257.434C184.386 268.075 185.819 279.061 185.318 290.462C184.886 300.29 181.967 309.211 177.451 317.768C177.269 318.114 177.001 318.416 176.777 318.736C176.621 318.753 176.483 318.753 176.336 318.753Z" fill="white"/>
<path d="M242.741 290.799C239.529 290.341 236.307 289.969 233.12 289.39C231.108 289.027 230.322 288.007 230.219 285.95C229.856 278.741 229.39 271.541 229.225 264.323C229.018 255.265 226.954 246.595 224.493 237.942C221.781 228.417 219.25 218.84 216.953 209.202C215.822 204.448 215.407 199.521 214.665 194.672C213.801 189.027 212.799 183.409 212.091 177.747C211.702 174.627 211.728 171.446 211.702 168.299C211.694 167.746 212.272 166.856 212.765 166.692C213.602 166.424 214.656 166.363 215.036 167.668C216.495 172.656 218.171 177.591 219.449 182.631C222.247 193.686 224.674 204.845 227.619 215.866C228.776 220.179 230.832 224.277 232.654 228.382C234.183 231.814 236.497 234.476 240.574 234.986C240.893 235.029 241.299 235.704 241.385 236.145C242.007 239.101 242.69 242.005 244.512 244.52C248.148 249.525 253.969 249.681 257.725 244.745C259.574 242.316 260.783 239.559 260.705 236.412C260.688 235.479 260.886 235.021 261.931 234.796C264.945 234.165 267.01 232.125 268.288 229.48C270.775 224.303 273.357 219.125 275.344 213.74C279.005 203.799 280.767 193.358 282.633 182.959C283.73 176.848 284.8 170.737 285.94 164.643C286.027 164.168 286.804 163.372 286.942 163.433C287.858 163.848 289.62 163.234 289.49 165.032C289.335 167.271 288.972 169.501 288.67 171.731C287.504 180.314 286.355 188.906 285.129 197.489C283.272 210.533 280.88 223.473 277.503 236.222C275.223 244.84 274.964 253.64 275.793 262.499C276.233 267.141 276.501 271.792 276.924 276.425C277.08 278.119 277.399 279.796 277.736 281.464C277.969 282.639 277.641 283.279 276.458 283.703C271.466 285.501 266.431 287.082 261.189 288.094C255.083 289.269 249.003 290.488 242.741 290.402C242.759 290.549 242.75 290.67 242.741 290.799Z" fill="white"/>
<path d="M74.2461 147.866V144.046C76.5088 144.046 78.737 144.028 80.9738 144.046C91.6484 144.141 102.314 144.296 112.989 144.314C118.395 144.322 123.802 144.063 129.208 143.951C130.503 143.925 131.807 143.994 133.112 143.994C143.337 143.968 153.562 143.925 163.788 143.899C169.799 143.881 175.81 143.925 181.821 143.89C206.227 143.734 230.633 143.553 255.04 143.397C262.51 143.354 269.981 143.467 277.442 143.371C292.323 143.19 307.195 142.879 322.075 142.697C331.644 142.576 341.222 142.568 350.791 142.533C360.766 142.498 370.741 142.576 380.707 142.455C393.627 142.3 406.547 141.893 419.476 141.807C431.653 141.72 443.831 141.988 456.008 141.945C462.77 141.919 469.524 141.461 476.286 141.409C483.696 141.357 491.115 141.625 498.525 141.608C507.843 141.591 517.162 141.418 526.481 141.357C527.18 141.357 528.165 141.513 528.519 141.98C529.072 142.714 528.234 144.651 527.301 145.057C526.636 145.342 525.859 145.472 525.133 145.472C518.017 145.472 510.901 145.29 503.784 145.411C489.465 145.653 475.146 146.06 460.818 146.379C454.056 146.535 447.294 146.682 440.532 146.777C433.018 146.881 425.496 146.993 417.982 146.976C406.556 146.95 395.13 146.734 383.713 146.76C365.723 146.803 347.734 146.941 329.744 147.106C321.177 147.183 312.618 147.495 304.051 147.572C298.196 147.624 292.332 147.313 286.467 147.399C273.997 147.581 261.534 148.004 249.063 148.177C233.181 148.393 217.299 148.471 201.417 148.601C192.4 148.67 183.375 148.791 174.359 148.782C169.557 148.774 164.747 148.463 159.936 148.428C155.532 148.402 151.118 148.566 146.714 148.636C145.712 148.653 144.719 148.601 143.717 148.601C128.681 148.566 113.645 148.584 98.6006 148.48C90.8365 148.428 83.0811 148.16 75.317 147.987C75.032 147.996 74.7384 147.935 74.2461 147.866Z" fill="white"/>
<path d="M260.135 200.766C253.519 191.569 241.739 195.26 238.596 202.719C236.169 208.467 236.299 214.553 237.015 220.621C237.102 221.321 237.983 222.315 238.665 222.488C240.487 222.954 242.404 223.11 244.287 223.283C245.263 223.369 245.85 222.73 245.678 221.77C245.47 220.603 245.28 219.341 244.693 218.339C242.854 215.21 242.845 211.847 243.026 208.416C243.078 207.43 243.493 207.007 244.529 207.033C246.628 207.093 248.735 207.05 250.834 207.05C250.834 207.119 250.834 207.197 250.834 207.275C252.837 207.275 254.841 207.275 256.844 207.275C258.675 207.275 258.848 207.413 258.658 209.245C258.287 212.945 258.727 216.843 256.179 220.042C256.059 220.188 256.015 220.405 255.964 220.603C255.489 222.462 256.214 223.413 258.131 223.378C260.135 223.335 262.13 223.222 264.134 223.196C265.075 223.188 265.55 222.764 265.584 221.865C265.628 220.811 265.619 219.765 265.628 218.71C265.697 212.15 263.952 206.073 260.135 200.766Z" fill="white"/>
<path d="M360.041 155.127C360.982 156.078 361.932 157.037 362.882 157.997C360.809 160.287 360.446 163.114 360.326 165.906C359.557 183.15 360.991 200.256 363.858 217.25C364.221 219.419 364.773 221.563 365.317 223.69C365.594 224.796 365.43 225.608 364.462 226.3C362.847 227.458 361.284 228.694 359.298 230.198C358.322 226.464 357.268 223.18 356.629 219.826C355.757 215.201 354.816 210.542 354.608 205.857C354.306 199.167 354.565 192.442 354.721 185.743C354.859 179.589 356.353 173.668 357.907 167.738C358.745 164.531 358.892 161.134 359.332 157.815C359.453 156.951 359.522 156.078 359.617 155.205C359.764 155.187 359.902 155.162 360.041 155.127Z" fill="white"/>
<path d="M209.569 164.877C182.287 166.779 155.229 168.671 128.085 170.573C128.145 169.908 128.232 169.086 128.327 168.049C130.909 169.648 133.56 169.83 136.341 169.32C139.848 168.672 140.055 168.499 140.47 164.981C143.397 164.842 146.342 164.756 149.279 164.548C166.258 163.338 183.237 162.085 200.216 160.858C201.814 160.745 203.437 160.788 205.009 160.512C206.348 160.278 207.013 160.745 207.591 161.852C208.135 162.897 208.878 163.84 209.569 164.877Z" fill="white"/>
<path d="M121.461 164.816C120.26 166.986 119.172 169 118.032 170.979C117.894 171.213 117.497 171.386 117.203 171.429C111.995 172.086 106.788 172.682 101.58 173.348C93.5913 174.376 85.6027 175.44 77.6227 176.52C76.4395 176.684 75.8004 176.278 75.5845 175.137C75.4377 174.35 75.2045 173.573 75.1786 172.777C75.0663 169.856 75.5672 169.216 78.4 168.948C87.7618 168.049 97.1322 167.211 106.494 166.32C110.925 165.897 115.355 165.404 119.785 164.955C120.269 164.903 120.761 164.877 121.461 164.816Z" fill="white"/>
<path d="M218.042 164.626C220.14 163.961 222.299 163.347 220.995 160.114C241.852 159.086 262.467 158.066 283.203 157.037C283.393 158.221 283.591 159.492 283.799 160.763C261.931 162.206 240.073 163.641 218.214 165.085C218.154 164.929 218.102 164.782 218.042 164.626Z" fill="white"/>
<path d="M497.696 152.187C477.659 153.017 457.683 153.847 437.699 154.676C437.207 153.656 436.714 152.636 436.127 151.426C438.286 151.288 440.454 151.107 442.622 151.02C458.832 150.398 475.034 149.793 491.244 149.179C491.495 149.17 491.754 149.205 491.996 149.153C494.595 148.591 496.409 149.62 497.696 152.187Z" fill="white"/>
<path d="M395.674 228.642C394.379 231.14 393.1 233.681 390.872 235.566C387.798 238.159 382.78 237.934 379.913 235.108C378.134 233.353 376.778 231.322 376.19 228.884C376.07 228.374 376.389 227.38 376.795 227.181C379.783 225.72 382.029 223.577 383.324 220.422C385.336 222.168 387.081 224 389.136 225.366C391.105 226.697 393.411 227.544 395.674 228.642ZM383.808 233.794C383.756 233.984 383.713 234.165 383.661 234.356C384.447 234.58 385.215 234.892 386.019 234.978C386.278 235.004 386.597 234.433 386.891 234.131C386.554 233.923 386.217 233.543 385.872 233.534C385.19 233.517 384.499 233.699 383.808 233.794Z" fill="white"/>
<path d="M145.297 219.618C148.217 219.618 150.566 219.575 152.906 219.636C154.495 219.679 155.203 220.587 155.143 222.186C155.1 223.283 155.203 224.39 155.238 225.488C155.247 225.686 155.212 225.885 155.169 226.084C154.452 229.325 152.034 230.838 149.175 231.78C146.506 232.662 143.993 232.377 142.076 230.06C139.926 227.45 138.993 224.381 138.906 221.027C138.889 220.198 139.174 219.869 140.021 219.852C141.981 219.809 143.924 219.679 145.297 219.618ZM149.538 227.986C147.742 228.141 146.092 228.288 144.062 228.461C146.55 229.905 148.882 229.723 149.538 227.986Z" fill="white"/>
<path d="M424.874 153.769C424.477 155.316 423.388 155.549 421.963 155.558C413.405 155.636 404.855 155.722 396.296 155.956C387.651 156.189 379.006 156.595 370.352 156.924C369.67 156.95 368.988 156.924 368.167 156.924C368.703 155.593 369.307 154.815 370.776 154.737C383.609 154.097 396.374 152.299 409.259 152.386C413.154 152.412 417.049 152.066 420.953 151.902C423.38 151.807 423.38 151.815 424.874 153.769Z" fill="white"/>
<path d="M356.802 154.642C356.629 155.645 356.465 156.569 356.275 157.676C336.247 158.454 316.245 159.223 296.08 160.001C296.995 158.367 297.712 157.33 299.931 157.244C317.791 156.509 335.634 155.541 353.485 154.651C354.53 154.599 355.575 154.642 356.802 154.642Z" fill="white"/>
<path d="M424.874 243.605C430.686 244.798 436.282 245.463 441.931 243.389C442.924 245.126 443.882 246.812 445.057 248.86C442.259 249.967 439.616 251.082 436.93 252.058C433.458 253.312 429.84 253.13 426.23 253.018C425.28 252.992 424.874 252.56 424.874 251.635C424.882 249.042 424.874 246.457 424.874 243.605Z" fill="white"/>
<path d="M468.686 223.63C468.064 220.457 467.745 217.51 468.781 214.579C469.455 212.669 470.318 212.168 472.305 212.367C473.79 212.514 475.276 212.643 476.77 212.738C478.791 212.859 480.397 214.173 480.501 216.144C480.63 218.729 480.535 221.322 480.328 224.114C476.493 220.985 472.633 221.503 468.686 223.63Z" fill="white"/>
<path d="M136.108 165.508C133.975 166.546 131.22 166.347 129.726 164.687C126.168 160.746 122.756 156.683 119.293 152.655C119.241 152.595 119.267 152.473 119.233 152.067C121.677 152.067 124.104 152.033 126.522 152.102C126.884 152.11 127.342 152.499 127.584 152.837C130.443 156.951 133.267 161.083 136.091 165.214C136.125 165.284 136.099 165.405 136.108 165.508Z" fill="white"/>
<path d="M387.081 248.047C384.784 247.917 382.936 246.768 381.727 244.676C381.528 244.339 381.666 243.656 381.891 243.267C382.374 242.394 382.987 241.599 383.566 240.786C384.024 240.155 384.525 239.023 385 239.023C386.597 239.023 388.394 238.254 389.784 239.853C390.7 240.907 391.779 241.815 392.824 242.748C393.386 243.258 393.541 243.708 393.135 244.425C392.09 246.31 389.301 248.056 387.081 248.047Z" fill="white"/>
<path d="M426.014 155.057C429.252 158.575 432.741 158.178 434.952 154.055C435.16 155.075 435.505 155.792 435.41 156.449C434.97 159.405 434.434 162.344 433.847 165.274C433.787 165.594 433.199 165.992 432.828 166.035C431.99 166.121 431.127 166.061 430.289 165.94C429.9 165.888 429.339 165.646 429.209 165.335C428.104 162.664 427.041 159.976 426.048 157.262C425.841 156.7 426.014 156.008 426.014 155.057Z" fill="white"/>
<path d="M515.918 178.351C514.709 175.274 513.543 172.301 512.377 169.327C512.619 169.345 512.852 169.362 513.094 169.379C513.621 168.489 514.087 167.538 514.701 166.717C515.202 166.043 515.815 165.17 516.514 165.005C517.145 164.858 518.198 165.386 518.656 165.948C519.209 166.63 519.537 167.642 519.615 168.541C519.787 170.676 519.675 172.837 519.839 174.98C519.943 176.311 519.459 177.02 518.224 177.392C517.568 177.582 516.946 177.919 515.918 178.351Z" fill="white"/>
<path d="M470.076 233.387C471.406 233.464 472.615 233.482 473.807 233.655C474.17 233.706 474.455 234.225 474.852 234.597C476.001 234.199 477.262 233.75 478.661 233.266C479.084 234.355 479.533 235.401 479.887 236.472C479.974 236.74 479.879 237.19 479.689 237.415C478.402 238.91 476.925 240.155 474.939 240.639C473.729 240.933 472.728 240.57 471.734 239.852C468.841 237.769 468.815 237.795 469.765 234.407C469.878 233.966 470.024 233.542 470.076 233.387Z" fill="white"/>
<path d="M522.62 148.721C522.957 149.974 522.551 150.821 521.178 150.882C515.193 151.132 509.199 151.331 503.188 151.547C503.516 150.605 503.81 149.749 504.164 148.729H522.62V148.721Z" fill="white"/>
<path d="M216.556 160.58C214.656 160.978 213.499 160.407 212.531 158.99C210.985 156.725 209.258 154.59 207.609 152.403C207.557 152.334 207.548 152.222 207.427 151.885C208.809 151.885 210.113 151.859 211.417 151.902C211.65 151.911 211.979 152.127 212.091 152.343C213.576 155.04 215.027 157.754 216.556 160.58Z" fill="white"/>
<path d="M401.175 446.518C401.063 448.54 400.968 450.26 400.856 452.248C399.085 452.067 397.436 452.067 395.899 451.652C395.406 451.522 395.044 450.321 394.905 449.56C394.551 447.529 394.707 447.399 396.693 447.123C398.066 446.932 399.448 446.751 401.175 446.518Z" fill="white"/>
<path d="M373.047 446.75C375.068 446.75 376.717 446.689 378.35 446.793C378.747 446.819 379.386 447.398 379.429 447.77C379.567 449.049 379.481 450.346 379.481 451.841C377.754 451.841 376.121 451.893 374.506 451.798C374.152 451.781 373.608 451.262 373.539 450.899C373.297 449.602 373.211 448.271 373.047 446.75Z" fill="white"/>
<path d="M460.784 236.543C464.195 235.653 466.38 236.776 467.313 239.931C467.52 240.64 468.176 241.505 466.881 242.04C465.154 242.749 463.936 242.663 463.314 241.505C462.986 240.908 462.917 240.165 462.606 239.56C462.062 238.557 461.431 237.615 460.784 236.543Z" fill="white"/>
<path d="M143.527 237.208C143.812 235.954 144.028 235.003 144.192 234.277C146.506 233.966 148.605 233.69 150.721 233.404C151.844 236.309 152.267 236.214 148.786 237.138C147.24 237.553 145.487 237.208 143.527 237.208Z" fill="white"/>
<path d="M245.341 456.562C242.975 456.562 240.712 456.596 238.441 456.51C238.233 456.501 237.862 455.766 237.888 455.386C237.991 453.493 240.211 452.127 242.12 452.784C243.847 453.381 244.909 454.608 245.341 456.562Z" fill="white"/>
<path d="M165.394 455.585C165.178 452.853 165.774 452.162 168.132 452.162C168.529 452.162 168.935 452.171 169.332 452.162C172.096 452.11 172.096 452.11 172.744 454.988C170.317 455.187 167.907 455.377 165.394 455.585Z" fill="white"/>
<path d="M465.672 452.69C463.824 452.863 462.096 453.027 460.24 453.2C460.058 452.024 459.894 450.909 459.704 449.647C461.734 449.526 463.651 449.414 465.68 449.293V452.69H465.672Z" fill="white"/>
<path d="M136.22 454.911C133.776 455.084 131.445 455.248 129.147 455.421C128.586 453.563 129.346 452.413 131.073 452.37C132.015 452.344 132.965 452.396 133.906 452.344C135.771 452.24 136.315 452.785 136.22 454.911Z" fill="white"/>
<path d="M490.544 450.934C492.695 450.778 494.681 450.64 496.806 450.484V453.026C494.958 453.173 493.084 453.32 490.985 453.484C490.847 452.714 490.7 451.876 490.544 450.934Z" fill="white"/>
<path d="M426.454 150.529C429.857 150.2 430.133 150.399 431.843 154.246C429.753 156.095 428.112 153.865 426.454 150.529Z" fill="white"/>
<path d="M269.29 456.242H262.113C262.881 454.669 263.857 453.848 265.282 453.718C267.036 453.562 268.115 454.643 269.29 456.242Z" fill="white"/>
<path d="M359.591 150.208C364.065 149.439 363.832 153.363 365.516 155.187C362.312 155.118 361.845 151.937 359.591 150.208Z" fill="white"/>
<path d="M285.207 150.693C286.588 150.209 287.322 150.667 287.841 151.912C288.437 153.373 289.231 154.756 289.965 156.217C288.791 156.286 286.467 153.511 285.207 150.693Z" fill="white"/>
<path d="M470.906 225.072H477.314C475.241 226.55 473.091 226.429 470.897 225.574C470.897 225.401 470.906 225.236 470.906 225.072Z" fill="white"/>
<path d="M249.365 216.402H252.293C251.421 217.431 250.661 217.466 249.365 216.402Z" fill="white"/>
<path d="M477.452 90.7479C480.803 88.6907 484.188 88.7426 487.392 90.1688C489.5 91.1023 491.642 91.5086 493.818 91.9926C494.915 92.2433 496.02 92.6668 496.979 93.246C497.471 93.5399 497.998 94.4042 497.894 94.8883C497.791 95.3896 497.013 95.8737 496.426 96.1244C495.796 96.3837 495.018 96.2454 494.371 96.4788C493.567 96.764 492.851 97.2826 492.073 97.6543C491.27 98.0433 490.441 98.6656 489.612 98.6743C487.159 98.7002 484.715 98.4323 482.262 98.3718C481.278 98.3458 480.224 98.415 479.3 98.7348C477.331 99.4177 475.509 99.1324 473.583 98.5101C470.595 97.5333 467.555 96.7467 464.532 95.8823C464.152 95.77 463.746 95.6922 463.392 95.5279C462.2 94.9834 462.079 94.361 463.133 93.5658C463.91 92.9694 464.817 92.3902 465.75 92.1655C469.325 91.327 472.892 91.2579 476.329 92.857C476.649 93.004 476.968 93.2546 477.288 93.2546C477.771 93.2633 478.264 93.0904 478.747 93.0039C478.626 92.5372 478.566 92.0358 478.359 91.6123C478.221 91.3184 477.875 91.1282 477.452 90.7479Z" fill="white"/>
<path d="M250.091 99.2449C254.314 95.5713 260.722 97.1445 263.227 102.581C263.97 104.198 264.773 105.391 266.604 105.788C267.58 106.004 268.245 106.67 268.262 107.828C268.288 109.021 268.055 110.119 266.897 110.603C265.809 111.052 264.617 111.485 263.469 111.493C256.508 111.571 249.538 111.562 242.577 111.51C241.239 111.502 239.866 111.277 238.596 110.871C238.026 110.689 237.309 109.825 237.283 109.237C236.981 103.869 242.318 99.3832 247.5 100.732C248.709 101.051 249.694 102.192 250.825 102.875C251.343 103.186 251.982 103.29 252.561 103.489C252.449 102.884 252.501 102.167 252.198 101.7C251.628 100.827 250.842 100.101 250.091 99.2449Z" fill="white"/>
<path d="M308.507 230.268C308.913 230.009 309.302 229.706 309.725 229.49C311.228 228.729 312.705 227.925 314.259 227.294C314.89 227.044 315.701 227.122 316.41 227.225C317.869 227.433 319.303 227.83 320.762 228.012C322.498 228.228 324.2 228.427 325.746 230.277C324.191 230.579 322.999 230.787 321.816 231.046C320.849 231.253 319.821 231.383 318.94 231.798C317.463 232.489 316.09 232.368 314.579 231.945C313.231 231.564 311.789 231.53 310.39 231.297C309.751 231.193 309.138 230.968 308.507 230.804C308.507 230.631 308.507 230.449 308.507 230.268Z" fill="white"/>
<path d="M75.7573 213.731C76.0682 213.264 76.146 213.031 76.2928 212.953C78.2705 211.95 80.2482 210.931 82.2691 210.006C82.6578 209.824 83.2451 210.023 83.7287 210.109C85.1278 210.36 86.5182 210.706 87.9173 210.913C89.6878 211.173 91.5014 211.25 93.056 213.091C91.9678 213.394 91.1128 213.653 90.2491 213.869C88.7637 214.25 87.2955 214.751 85.7841 214.941C84.5491 215.097 83.2623 214.95 82.0101 214.82C80.6455 214.682 79.2982 214.423 77.9423 214.189C77.2773 214.077 76.6123 213.913 75.7573 213.731Z" fill="white"/>
<path d="M206.287 74.8162C207.203 74.2284 207.876 73.7098 208.611 73.3208C210.476 72.3441 212.298 71.592 214.077 73.6233C214.63 74.2543 215.597 74.5396 216.375 74.9804C215.684 75.5768 215.053 76.2856 214.276 76.7438C213.723 77.0722 212.886 77.3488 212.324 77.1673C210.416 76.5536 208.567 75.7238 206.287 74.8162Z" fill="white"/>
<path d="M383.808 233.794C384.499 233.699 385.19 233.518 385.881 233.544C386.226 233.552 386.563 233.932 386.9 234.14C386.606 234.434 386.286 235.013 386.027 234.987C385.233 234.901 384.456 234.589 383.67 234.365C383.713 234.166 383.756 233.976 383.808 233.794Z" fill="black"/>
<path d="M149.538 227.984C148.873 229.722 146.541 229.903 144.062 228.46C146.092 228.287 147.741 228.14 149.538 227.984Z" fill="black"/>
<path d="M245.393 224.779C245.298 224.477 244.978 224.477 244.728 224.451C244.434 224.416 244.141 224.381 243.856 224.347C243.683 224.33 243.545 224.503 243.545 224.658C243.545 224.848 243.692 224.952 243.856 224.969C244.046 224.995 244.227 225.012 244.417 225.038C244.512 225.047 244.607 225.064 244.693 225.073C244.719 225.073 244.754 225.073 244.788 225.082C244.788 225.099 244.788 225.116 244.788 225.133C244.788 225.22 244.78 225.298 244.78 225.384C244.771 225.54 244.745 225.695 244.693 225.851C244.59 226.162 244.348 226.387 244.115 226.603C243.571 227.139 243.001 227.649 242.422 228.142C242.111 228.401 242.56 228.842 242.862 228.582C243.303 228.211 243.726 227.83 244.141 227.441C244.512 227.096 244.97 226.733 245.194 226.257C245.307 226.015 245.358 225.765 245.393 225.505C245.41 225.28 245.462 224.987 245.393 224.779Z" fill="white"/>
<path d="M246.118 220.353C246.118 220.301 246.118 220.25 246.127 220.198C246.144 219.99 245.98 219.895 245.816 219.904C245.203 218.979 244.607 218.028 244.244 216.965C243.795 215.642 243.7 214.242 243.709 212.85C243.717 211.243 243.838 209.644 243.726 208.036C243.7 207.638 243.07 207.63 243.096 208.036C243.286 210.793 242.759 213.611 243.406 216.325C243.778 217.881 244.616 219.204 245.479 220.509C245.436 221.192 245.427 221.883 245.496 222.566C245.505 222.627 245.514 222.696 245.522 222.756C245.263 222.851 245.03 222.929 244.728 222.938C244.408 222.955 244.089 222.938 243.769 222.938C242.854 222.938 241.947 222.972 241.031 223.024C240.185 222.895 239.347 222.765 238.501 222.627C238.104 222.566 237.94 223.171 238.337 223.232C238.501 223.258 238.674 223.284 238.838 223.309C238.717 223.508 238.795 223.811 239.08 223.785C239.71 223.724 240.341 223.681 240.971 223.647C241.636 223.75 242.301 223.845 242.966 223.914C243.717 224.001 244.469 224.053 245.22 224.044C245.341 224.044 245.522 224.053 245.712 224.053C245.756 224.303 245.773 224.546 245.704 224.796C245.591 225.185 246.196 225.349 246.308 224.96C246.403 224.615 246.377 224.278 246.326 223.932C246.481 223.854 246.576 223.724 246.533 223.5C246.498 223.284 246.326 222.903 246.17 222.756C246.161 222.748 246.153 222.748 246.144 222.739C246.144 222.713 246.136 222.678 246.136 222.653C246.092 222.229 246.075 221.805 246.075 221.391C246.308 221.745 246.541 222.099 246.757 222.462C247.422 223.569 247.932 224.753 247.958 226.067C247.966 226.473 248.588 226.473 248.588 226.067C248.545 223.897 247.293 222.099 246.118 220.353Z" fill="black"/>
<path d="M262.691 223.413C262.165 223.56 261.569 223.447 261.025 223.421L259.323 223.326L256.361 223.162C256.292 222.263 256.223 221.373 256.154 220.474C256.223 220.474 256.292 220.448 256.352 220.379C259.548 217.025 258.408 212.046 258.736 207.888C258.753 207.664 258.563 207.569 258.382 207.595C257.959 207.171 257.285 207.197 256.707 207.154C255.834 207.093 254.962 207.076 254.081 207.11C253.675 207.128 253.278 207.154 252.872 207.188C251.758 207.041 250.644 206.964 249.53 207.197C249.262 207.257 249.253 207.551 249.409 207.716C249.279 207.741 249.15 207.767 249.02 207.793C248.632 207.888 248.796 208.494 249.184 208.398C250.048 208.191 250.929 208.044 251.81 207.932C251.81 207.94 251.818 207.94 251.818 207.949C252.026 208.208 252.466 208.2 252.682 207.966C252.717 207.923 252.742 207.88 252.76 207.828C252.794 207.828 252.829 207.819 252.863 207.819C253.131 207.854 253.399 207.897 253.667 207.94C253.822 207.966 253.977 207.897 254.038 207.75C254.625 207.733 255.212 207.724 255.8 207.741C256.154 207.75 256.499 207.776 256.845 207.802C257.13 207.828 257.743 207.776 257.933 208.035C257.976 208.087 258.019 208.122 258.071 208.139C257.829 211.968 258.805 216.601 256.067 219.722C256.042 219.583 255.947 219.506 255.826 219.471C255.826 219.462 255.826 219.462 255.826 219.454C255.826 219.048 255.195 219.048 255.195 219.454C255.195 219.506 255.195 219.558 255.195 219.609C255.014 219.618 254.91 219.756 254.893 219.921C254.841 220.31 254.841 220.707 254.858 221.105C254.841 221.347 254.824 221.589 254.832 221.831C254.841 222.021 254.841 222.272 254.893 222.488C254.893 222.842 254.893 223.188 254.902 223.542C254.91 223.758 255.091 223.854 255.264 223.836C255.273 224.044 255.299 224.251 255.333 224.459C255.385 224.718 255.653 224.735 255.817 224.606C255.826 224.701 255.834 224.796 255.843 224.891C255.869 225.288 256.499 225.297 256.473 224.891L256.387 223.776L259.436 223.949C260.023 223.983 260.619 224.018 261.206 224.044C261.741 224.078 262.303 224.156 262.83 224C263.253 223.905 263.089 223.3 262.691 223.413Z" fill="black"/>
<path d="M252.855 216.316C252.803 216.134 252.639 216.074 252.466 216.1C251.291 216.264 250.091 216.169 248.942 215.858C248.554 215.754 248.39 216.359 248.778 216.463C250.039 216.808 251.343 216.886 252.63 216.705C252.803 216.679 252.898 216.463 252.855 216.316Z" fill="black"/>
</svg>
