<svg width="585" height="600" viewBox="0 0 585 600" fill="none" xmlns="http://www.w3.org/2000/svg">
<g clip-path="url(#clip0)">
<path d="M211.144 411.967L221.765 411.033L220.077 420.736L211.746 421.351L211.144 411.967Z" fill="white"/>
<path d="M298.025 474.938L306.523 478.418L302.278 494.843L294.989 489.054L298.025 474.938Z" fill="white"/>
<path d="M466.092 215.049L484.769 230.511L475.43 242.023L476.915 251.234L491.028 258.036L477.582 267.522L454.42 258.759L452.16 250.229L463.338 244.672L465.07 240.403L461.346 236.459L462.056 224.853L466.092 215.049Z" fill="white"/>
<path d="M288.418 226.277C288.418 226.277 299.155 231.957 290.411 247.615L281.666 231.697L288.418 226.277Z" fill="white"/>
<path d="M128.596 204.368L145.39 200.635L153.229 218.167L139.695 225.453L140.688 230.431L156.293 244.476L125.184 250.351L127.147 237.573L132.378 223.847L128.596 204.368Z" fill="white"/>
<path d="M151.765 238.47C151.867 239.352 151.975 240.141 152.041 240.937C152.164 242.435 152.323 243.933 152.352 245.43C152.483 253.303 152.403 261.175 151.555 269.011C151.207 272.217 150.621 275.415 149.918 278.57C149.643 279.829 149.628 280.769 150.534 281.71C151.454 282.665 152.338 283.671 153.171 284.705C153.519 285.14 153.845 285.69 153.359 286.276C152.903 286.826 152.28 287.064 151.657 286.789C150.983 286.493 150.266 286.116 149.795 285.574C148.527 284.148 147.266 282.701 146.208 281.124C140.652 272.839 135.696 264.221 132.371 254.764C130.422 249.215 128.017 243.781 127.343 237.847C127.336 237.753 127.22 237.667 127.154 237.573C125.51 238.926 123.923 240.351 122.221 241.617C119.2 243.882 116.048 245.886 112.23 246.639C110.078 247.058 107.956 247.688 105.876 248.383C97.849 251.053 90.0028 254.157 82.4101 257.919C75.9332 261.132 69.9707 265.046 64.6384 269.938C59.9003 274.293 55.3071 278.772 51.3079 283.83C50.2719 285.14 49.3373 286.522 48.3447 287.882C48.62 288.287 48.8012 288.569 48.9968 288.851C50.5399 291.022 51.2934 291.145 53.293 289.495C59.3207 284.517 65.305 279.496 71.3762 274.576C73.1657 273.128 75.1073 271.819 77.1214 270.705C81.0119 268.563 85.3153 267.514 89.655 266.783C93.3571 266.161 97.11 265.806 100.841 265.365C102.964 265.111 105.087 264.764 107.209 264.721C109.535 264.67 110.346 265.82 109.854 268.049C109.817 268.215 109.789 268.389 109.731 268.556C108.006 273.505 107.151 278.635 106.492 283.801C106.007 287.643 105.5 291.485 105.275 295.349C105.029 299.56 105.065 303.793 105.029 308.011C104.985 312.809 104.956 317.613 105 322.418C105.029 325.196 105.282 327.967 105.311 330.739C105.42 340.239 106.101 349.696 107.528 359.088C108.6 366.135 110.672 372.951 112.6 379.796C112.708 380.173 112.918 380.527 113.107 380.939C114.874 380.939 116.642 381.171 118.33 380.896C122.605 380.201 126.908 379.521 131.088 378.4C137.334 376.721 143.506 374.753 149.664 372.749C153.779 371.41 157.822 369.854 161.865 368.299C167.929 365.962 173.63 362.85 179.303 359.746C183.607 357.387 187.693 354.623 191.829 351.961C192.967 351.23 193.923 350.202 194.988 349.284C194.691 348.799 194.546 348.48 194.329 348.227C193.206 346.903 192.069 345.593 190.924 344.284C186.729 339.479 182.962 334.349 179.593 328.937C176.101 323.329 173.239 317.396 170.631 311.333C168.523 306.427 166.806 301.391 165.69 296.181C164.879 292.397 164.364 288.548 163.857 284.713C163.082 278.845 162.915 272.933 163.451 267.043C164.118 259.721 167.001 253.361 172.167 248.028C175.347 244.743 179.252 242.449 182.918 239.83C186.823 237.037 190.859 234.425 194.698 231.545C196.626 230.098 198.364 228.34 199.965 226.531C202.668 223.492 204.124 219.744 205.392 215.945C207.413 209.86 209.355 203.739 211.289 197.617C211.615 196.604 211.738 195.526 211.963 194.412C210.507 194.072 209.232 193.775 207.986 193.479C207.341 194.723 206.855 195.845 206.218 196.865C203.429 201.329 200.668 205.815 197.763 210.2C196.133 212.653 194.351 215.019 192.431 217.248C188.634 221.654 184.085 225.257 179.462 228.752C172.667 233.89 164.958 236.863 156.525 237.97C155.004 238.18 153.461 238.296 151.765 238.47Z" fill="black"/>
<path d="M157.445 373.372C156.011 373.965 154.649 374.523 153.164 375.138C153.562 375.847 153.794 376.375 154.134 376.831C158.612 382.851 162.06 389.464 165.444 396.121C167.146 399.464 168.262 402.959 167.914 406.801C167.624 410.028 166.581 413.038 165.009 415.816C163.104 419.188 161.01 422.451 158.945 425.729C156.293 429.94 153.584 434.115 150.896 438.297C147.766 443.167 144.499 447.935 140.768 452.371C140.246 452.986 139.826 453.673 139.304 454.404C141.014 457.465 142.166 460.735 142.956 464.114C143.282 465.489 143.383 466.98 143.238 468.383C143.064 470.091 141.717 470.822 140.058 470.315C139.406 470.113 138.732 469.816 138.21 469.389C135.928 467.515 133.697 465.583 131.443 463.673C130.306 462.703 129.4 461.618 129.56 459.954C128.676 459.954 127.835 460.142 127.14 459.903C126.408 459.65 125.821 458.991 125.177 458.507C124.901 458.297 124.648 458.051 124.351 457.87C122.257 456.596 122.025 454.693 122.605 452.566C123.264 450.135 124.604 448.131 126.698 446.72C127.517 446.163 128.031 445.49 128.393 444.614C129.755 441.3 131.125 437.986 132.508 434.68C134.74 429.347 137.007 424.022 139.232 418.682C140.565 415.476 141.731 412.213 142.282 408.754C142.601 406.757 142.405 404.818 141.753 402.937C141.217 401.41 140.688 399.862 139.942 398.436C137.254 393.306 134.349 388.306 130.791 383.712C130.436 383.256 130.06 382.829 129.618 382.294C127.647 382.757 125.691 383.234 123.728 383.683C120.67 384.37 117.577 384.797 114.432 384.775C110.332 384.739 109.086 383.893 108.042 379.884C106.941 375.637 106.014 371.339 105.029 367.055C103.92 362.244 103.681 357.316 103.268 352.432C102.631 344.885 102.247 337.317 101.79 329.748C101.319 321.941 101.522 314.134 101.66 306.327C101.797 298.208 102.464 290.148 103.869 282.16C104.616 277.891 105.594 273.665 106.463 269.425C106.579 268.875 106.68 268.318 106.84 267.5C105.159 267.746 103.703 267.978 102.239 268.173C98.856 268.622 95.4726 269.092 92.082 269.483C87.141 270.054 82.3304 271.118 78.0994 273.81C75.129 275.698 72.3397 277.891 69.5867 280.09C64.6602 284.026 59.8133 288.071 54.9375 292.065C52.6264 292.868 52.3294 294.894 51.9527 296.906C51.5832 298.896 51.2064 300.885 50.6993 302.839C50.2211 304.677 49.004 305.61 47.4029 305.69C46.2364 305.748 45.4395 305.126 44.5846 304.192C44.1065 304.72 43.65 305.212 43.2081 305.719C41.7156 307.426 39.4045 307.998 37.4122 307.014C33.1594 304.908 32.0655 301.377 33.7608 296.993C33.8622 296.725 34.0143 296.472 34.1737 296.233C36.4848 292.608 39.774 290.155 43.6138 288.346C44.2151 288.064 44.9758 287.753 45.2729 287.239C47.3304 283.556 50.2646 280.568 53.0104 277.449C55.6548 274.454 58.4006 271.552 61.1826 268.68C65.928 263.767 71.4341 259.896 77.4184 256.596C86.5976 251.538 96.4289 248.123 106.253 244.643C107.39 244.238 108.629 244.144 109.796 243.796C112.339 243.044 115.019 242.53 117.374 241.372C121.09 239.542 124.242 236.85 126.597 233.377C127.785 231.619 128.763 229.723 129.835 227.892C129.748 227.784 129.661 227.682 129.574 227.574C128.705 227.784 127.814 227.943 126.966 228.218C124.814 228.927 122.634 228.775 120.438 228.572C119.765 228.507 119.381 228.08 119.236 227.487C118.982 226.423 118.634 225.345 118.62 224.274C118.584 221.561 118.721 218.841 118.779 216.12C118.837 213.747 118.83 211.373 118.953 209.007C119.113 205.939 119.359 202.864 120.707 200.042C123.315 194.565 127.575 191.041 133.588 190.006C136.421 189.522 139.203 189.992 141.622 191.917C143.245 193.205 145.057 194.268 146.839 195.346C148.505 196.359 149.498 197.879 150.324 199.55C152.062 203.074 153.091 206.75 153.019 210.729C152.968 213.211 153.149 215.693 153.25 218.175C153.323 219.955 153.301 221.735 154.468 223.305C155.17 224.246 154.953 224.991 153.91 225.635C153.25 226.047 152.439 226.416 151.686 226.431C149.143 226.474 146.592 226.351 144.049 226.286C143.6 226.272 143.158 226.235 142.441 226.199C142.695 227.024 142.818 227.697 143.093 228.29C144.455 231.213 146.65 233.406 149.331 235.121C149.802 235.425 150.563 235.504 151.135 235.403C154.728 234.795 158.307 234.122 161.879 233.428C164.915 232.834 167.784 231.698 170.479 230.244C175.427 227.574 180.129 224.542 184.266 220.657C188.236 216.916 192.083 213.066 195.213 208.595C198.401 204.044 201.458 199.413 204.544 194.789C205.645 193.132 206 191.193 206.428 189.29C206.595 188.559 206.696 187.807 206.935 187.105C207.08 186.685 207.362 186.237 207.71 185.991C208.036 185.766 208.638 185.6 208.927 185.752C209.195 185.897 209.362 186.541 209.297 186.917C209.152 187.763 208.826 188.581 208.587 189.413C208.456 189.847 208.355 190.296 208.181 190.94C209.406 191.063 210.521 191.2 211.644 191.28C213.441 191.403 213.702 191.671 213.608 193.458C213.6 193.624 213.528 193.87 213.608 193.95C214.788 195.108 214.202 196.504 213.97 197.734C213.499 200.223 212.869 202.698 212.144 205.129C210.941 209.174 209.558 213.161 208.348 217.205C206.109 224.672 201.987 230.758 195.546 235.251C190.373 238.862 185.215 242.494 180.122 246.22C178.311 247.544 176.673 249.122 175.021 250.656C173.964 251.64 173.029 252.754 172.029 253.803C170.566 255.344 169.602 257.182 168.87 259.143C167.552 262.688 166.748 266.35 166.675 270.148C166.545 277.167 167.001 284.12 168.262 291.045C169.052 295.386 169.986 299.677 171.522 303.794C173.848 310.024 176.333 316.203 179.817 321.905C182.23 325.848 184.614 329.835 187.345 333.562C190.388 337.708 193.807 341.579 197.075 345.566C197.365 345.92 197.72 346.224 198.075 346.521C199.147 347.44 199.4 348.12 198.908 349.4C198.64 350.081 198.234 350.746 197.756 351.303C195.053 354.458 191.743 356.889 188.214 359.031C185.258 360.825 182.223 362.504 179.078 364.313C179.774 365.688 180.484 367.055 181.158 368.445C183.867 374.009 186.62 379.551 189.258 385.152C190.764 388.335 192.177 391.577 193.496 394.847C196.597 402.532 195.807 410.013 192.184 417.329C188.055 425.664 182.875 433.319 177.166 440.635C174 444.694 170.834 448.76 167.639 452.798C166.567 454.158 165.407 455.446 164.241 456.828C165.197 459.093 166.175 461.372 167.117 463.666C168.059 465.974 168.936 468.311 169.066 470.829C169.175 472.927 167.704 474.063 165.69 473.441C164.929 473.202 164.161 472.862 163.509 472.406C162.082 471.422 160.684 470.388 159.351 469.273C158.249 468.347 157.221 467.32 156.243 466.263C155.025 464.946 153.874 463.557 153.656 461.589C151.997 461.886 151.041 461.082 150.251 459.889C149.838 459.266 149.259 458.76 148.809 458.159C148.15 457.284 148.121 456.387 148.701 455.417C149.635 453.861 150.7 452.429 152.193 451.379C152.881 450.895 153.323 450.294 153.721 449.556C157.597 442.451 161.582 435.41 165.407 428.269C167.943 423.53 170.406 418.74 172.355 413.718C173.71 410.23 174.746 406.642 173.413 402.908C172.696 400.896 171.768 398.957 170.856 397.025C167.682 390.325 164.103 383.849 160.082 377.619C159.184 376.252 158.365 374.87 157.445 373.372ZM151.765 238.413C151.867 239.296 151.975 240.084 152.041 240.88C152.164 242.378 152.323 243.876 152.352 245.374C152.483 253.246 152.403 261.118 151.555 268.955C151.207 272.16 150.621 275.358 149.918 278.513C149.635 279.772 149.628 280.712 150.534 281.653C151.454 282.608 152.338 283.614 153.171 284.649C153.519 285.083 153.845 285.633 153.359 286.219C152.903 286.769 152.28 287.007 151.657 286.733C150.983 286.436 150.266 286.06 149.795 285.517C148.527 284.092 147.266 282.644 146.208 281.067C140.652 272.782 135.696 264.165 132.378 254.708C130.429 249.158 128.024 243.731 127.35 237.791C127.343 237.697 127.227 237.61 127.162 237.516C125.517 238.869 123.93 240.294 122.228 241.56C119.207 243.825 116.055 245.829 112.237 246.582C110.086 247.002 107.963 247.631 105.883 248.326C97.8562 250.996 90.01 254.1 82.4173 257.862C75.9404 261.075 69.9779 264.989 64.6457 269.881C59.9075 274.229 55.3143 278.715 51.3151 283.773C50.2791 285.083 49.3445 286.465 48.3519 287.825C48.6273 288.23 48.8084 288.512 49.004 288.787C50.5471 290.958 51.3006 291.081 53.3002 289.431C59.3279 284.453 65.3122 279.432 71.3834 274.512C73.1729 273.064 75.1145 271.755 77.1286 270.64C81.0191 268.491 85.3225 267.45 89.6622 266.719C93.3644 266.096 97.1172 265.742 100.848 265.301C102.971 265.047 105.094 264.7 107.217 264.649C109.549 264.599 110.354 265.749 109.861 267.978C109.825 268.144 109.796 268.318 109.738 268.484C108.013 273.426 107.159 278.563 106.499 283.73C106.014 287.572 105.507 291.421 105.282 295.278C105.036 299.489 105.072 303.722 105.036 307.94C104.992 312.737 104.963 317.542 105.007 322.339C105.036 325.11 105.289 327.889 105.318 330.66C105.427 340.16 106.108 349.617 107.535 359.009C108.608 366.05 110.68 372.873 112.607 379.718C112.715 380.094 112.926 380.449 113.114 380.861C114.882 380.861 116.649 381.092 118.337 380.818C122.612 380.123 126.915 379.443 131.096 378.321C137.341 376.643 143.513 374.674 149.672 372.67C153.787 371.332 157.829 369.776 161.872 368.22C167.936 365.883 173.638 362.772 179.31 359.668C183.614 357.309 187.7 354.545 191.837 351.882C192.974 351.151 193.93 350.124 194.995 349.205C194.698 348.72 194.554 348.402 194.336 348.149C193.213 346.825 192.076 345.515 190.931 344.205C186.736 339.401 182.969 334.271 179.6 328.858C176.108 323.251 173.246 317.318 170.638 311.254C168.53 306.356 166.813 301.312 165.697 296.103C164.886 292.318 164.371 288.469 163.864 284.634C163.089 278.766 162.922 272.855 163.459 266.965C164.125 259.642 167.009 253.282 172.174 247.949C175.355 244.665 179.26 242.371 182.926 239.759C186.83 236.966 190.866 234.354 194.706 231.474C196.633 230.027 198.372 228.269 199.973 226.467C202.675 223.428 204.131 219.673 205.399 215.881C207.428 209.789 209.362 203.675 211.296 197.553C211.622 196.54 211.746 195.462 211.97 194.348C210.514 194.008 209.239 193.711 207.993 193.414C207.348 194.659 206.863 195.781 206.225 196.801C203.436 201.265 200.675 205.751 197.77 210.136C196.14 212.589 194.358 214.955 192.438 217.184C188.642 221.59 184.092 225.193 179.47 228.688C172.674 233.826 164.965 236.799 156.532 237.899C155.004 238.116 153.461 238.239 151.765 238.413ZM162.14 454.498C162.299 454.303 162.451 454.136 162.582 453.955C167.052 447.986 171.515 442.017 175.985 436.054C176.507 435.36 177.079 434.701 177.543 433.971C180.738 429.014 183.976 424.087 187.048 419.058C188.337 416.952 189.424 414.68 190.308 412.372C192.098 407.691 192.141 402.865 190.786 398.067C190.257 396.186 189.475 394.355 188.634 392.583C184.592 384.074 180.491 375.593 176.405 367.113C176.21 366.701 175.956 366.325 175.644 365.796C170.79 367.895 165.987 369.971 161.118 372.084C161.329 372.511 161.473 372.887 161.676 373.227C164.321 377.706 166.965 382.185 169.617 386.664C172.71 391.895 175.804 397.134 177.093 403.176C177.39 404.572 177.695 406.034 177.593 407.437C177.39 410.397 176.521 413.219 175.202 415.896C173.572 419.21 172 422.56 170.406 425.896C168.863 429.13 167.508 432.466 165.762 435.584C163.053 440.417 160.082 445.113 157.221 449.867C156.815 450.547 156.409 451.228 155.982 451.937C157.742 453.782 159.706 454.664 162.14 454.498ZM137.623 451.814C138.681 450.106 139.637 448.456 140.688 446.879C142.383 444.325 144.18 441.843 145.868 439.289C148.063 435.953 150.229 432.603 152.338 429.217C154.75 425.338 157.17 421.453 159.416 417.481C160.749 415.122 161.828 412.611 162.872 410.107C164.082 407.199 163.821 404.254 162.879 401.287C161.307 396.345 158.641 391.924 156.322 387.33C154.388 383.502 152.019 379.956 149.519 376.375C144.238 377.988 138.956 379.595 133.508 381.252C134.008 381.982 134.407 382.54 134.776 383.111C137.21 386.91 139.688 390.672 142.043 394.522C143.064 396.193 144.013 397.952 144.68 399.782C146.158 403.87 146.788 408.11 145.462 412.365C144.535 415.339 143.434 418.269 142.209 421.135C139.674 427.089 137.007 432.994 134.392 438.92C133.298 441.394 132.197 443.862 131.088 446.351C132.834 448.615 134.935 450.381 137.623 451.814ZM131.856 245.395C135.769 256.531 140.63 267.167 147.505 276.856C147.824 276.045 148.034 275.271 148.099 274.49C148.396 271.096 148.672 267.703 148.933 264.302C149.469 257.269 149.751 250.229 149.143 243.181C149.077 242.4 148.925 241.618 148.802 240.721C143.368 243.369 137.681 244.339 131.856 245.395ZM135.399 223.088C135.595 223.79 135.812 224.383 135.928 224.998C136.189 226.387 135.711 226.908 134.283 226.908C133.378 226.908 132.472 226.966 131.806 226.988C130.777 229.658 129.842 232.067 128.937 234.491C128.763 234.962 128.538 235.511 128.625 235.967C129.067 238.283 129.654 240.569 130.733 242.841C131.813 242.769 132.856 242.79 133.863 242.602C136.363 242.147 138.848 241.611 141.333 241.068C142.463 240.822 143.6 240.576 144.68 240.193C145.962 239.744 147.259 239.231 148.085 237.892C147.563 237.523 147.107 237.176 146.636 236.864C144.136 235.2 142.13 233.08 140.695 230.432C139.847 228.869 139.333 227.256 139.703 225.447C139.898 224.506 140.007 223.544 140.173 222.48C138.565 222.69 137.094 222.871 135.399 223.088ZM132.378 208.515C132.552 212.611 133.088 216.395 134.399 220.143C135.754 220.143 137.022 220.23 138.283 220.128C142.188 219.81 145.441 217.082 145.39 212.676C145.368 210.831 145.375 208.978 145.368 207.133C145.368 206.229 145.368 205.317 145.368 204.376C140.97 205.773 136.768 207.112 132.378 208.515ZM45.6641 289.692C42.7227 291.826 40.0059 294.084 37.9121 296.92C36.2313 299.2 36.666 302.108 38.4989 303.917C39.6943 305.097 41.2882 304.843 42.0489 303.367C42.4691 302.55 42.8386 301.689 43.3602 300.936C43.8311 300.256 44.5194 299.778 45.4468 299.995C46.2727 300.191 46.4103 300.9 46.548 301.595C46.5697 301.71 46.5552 301.848 46.6132 301.935C46.8305 302.246 47.0696 302.535 47.3014 302.832C47.6057 302.55 48.0549 302.318 48.1926 301.964C48.5041 301.16 48.6925 300.307 48.8591 299.46C49.2503 297.543 49.5981 295.618 49.9965 293.541C47.8448 293.281 47.3232 291.096 45.6641 289.692ZM128.248 456.191C128.545 455.916 128.741 455.706 128.958 455.533C130.516 454.303 132.009 454.766 132.479 456.676C132.661 457.4 132.769 458.159 132.762 458.897C132.74 460.178 133.291 461.097 134.269 461.849C134.82 462.269 135.319 462.747 135.87 463.174C137.312 464.302 138.768 465.409 140.311 466.596C140.398 466.227 140.478 466.068 140.456 465.916C140.405 465.576 140.34 465.228 140.231 464.91C139.232 462.095 138.188 459.288 137.218 456.459C136.71 454.997 135.957 453.897 134.45 453.217C133.269 452.682 132.269 451.727 131.219 450.916C130.596 450.424 130.045 449.838 129.306 449.151C128.545 449.882 127.741 450.461 127.176 451.22C125.365 453.644 125.561 454.469 128.248 456.191ZM166.342 470.272C166.045 469.309 165.893 468.658 165.639 468.058C164.48 465.294 163.212 462.573 162.147 459.766C161.495 458.043 160.626 456.987 158.655 456.575C157.163 456.264 155.844 455.12 154.258 454.245C153.569 454.91 152.729 455.735 151.939 456.502C152.816 458.282 152.816 458.282 154.482 458.297C154.656 458.297 154.83 458.29 155.004 458.297C156.554 458.405 157.003 458.89 157.148 460.424C157.213 461.09 157.235 461.907 157.626 462.37C160.075 465.286 162.756 467.978 166.342 470.272Z" fill="black"/>
<path d="M135.559 213.58C135.711 213.934 135.732 214.159 135.848 214.238C137.247 215.135 138.63 216.047 140.065 216.865C140.811 217.284 141.369 216.785 141.804 216.184C142.47 215.251 143.166 214.332 143.767 213.363C144.021 212.965 144.071 212.444 144.216 211.973C143.745 211.836 143.245 211.51 142.818 211.583C140.789 211.937 138.775 212.386 136.768 212.863C136.334 212.965 135.957 213.334 135.559 213.58Z" fill="white"/>
<path d="M135.559 213.579C135.957 213.333 136.334 212.964 136.776 212.856C138.783 212.378 140.797 211.937 142.825 211.575C143.253 211.495 143.76 211.821 144.223 211.966C144.079 212.429 144.021 212.95 143.774 213.355C143.166 214.324 142.477 215.243 141.811 216.177C141.383 216.777 140.818 217.284 140.072 216.857C138.63 216.039 137.247 215.128 135.856 214.23C135.732 214.158 135.711 213.941 135.559 213.579Z" fill="black"/>
<path d="M443.495 485.944C439.8 481.993 436.119 478.086 432.468 474.15C431.642 473.26 430.831 472.341 430.128 471.357C427.107 467.117 423.977 462.942 421.188 458.55C418.645 454.556 416.435 450.345 414.182 446.17C411.262 440.779 408.364 435.374 405.611 429.897C403.01 424.73 400.692 419.441 399.055 413.855C397.584 408.848 396.881 403.776 397.432 398.602C397.801 395.144 398.845 391.765 400.438 388.69C402.996 383.769 405.829 378.994 408.582 374.168C410.016 371.657 411.487 369.168 412.994 366.701C414.196 364.725 415.435 362.772 416.739 360.854C420.782 354.928 424.883 349.046 428.904 343.105C430.454 340.811 431.917 338.445 433.243 336.021C433.837 334.936 434.047 333.626 434.352 332.396C434.779 330.674 434.656 328.829 435.598 327.201C435.866 326.745 435.772 326.072 435.822 325.494C436.38 319.502 436.982 313.519 437.467 307.52C437.923 301.913 437.706 296.305 437.206 290.712C437.119 289.735 437.047 288.744 436.837 287.789C435.808 283.049 433.41 279.164 429.635 276.06C422.282 270.018 414.16 265.076 406.372 259.664C401.916 256.567 397.693 253.094 393.57 249.556C391.484 247.761 389.832 245.482 388.651 242.899C386.941 239.165 385.007 235.54 383.333 231.792C382.065 228.948 381.037 225.989 379.928 223.073C378.139 218.377 376.393 213.66 374.589 208.971C374.009 207.473 373.292 206.026 372.647 204.55C372.531 204.289 372.415 204.007 372.386 203.725C371.93 199.239 371.531 194.753 371.981 190.238C372.133 188.704 372.988 187.676 374.516 187.3C375.944 186.946 377.197 187.38 378.037 188.885C378.841 190.332 379.53 191.909 379.935 193.508C380.58 196.077 381 198.718 381.421 201.337C381.645 202.734 382.029 203.891 383.116 204.962C384.587 206.417 385.724 208.197 386.999 209.846C391.31 215.432 395.657 220.982 400.373 226.257C404.046 230.367 408.111 234.057 412.153 237.761C416.863 242.081 422.064 245.793 428.07 248.13C430.034 248.89 432.222 249.15 434.33 249.425C439.691 250.12 445.081 250.279 450.428 249.31C452.638 248.912 454.833 248.304 456.927 247.501C458.18 247.023 459.325 246.111 460.317 245.178C461.571 243.999 462.621 242.595 463.867 241.177C463.447 240.743 463.07 240.33 462.686 239.939C460.614 237.834 459.52 235.338 459.303 232.356C459.042 228.825 459.738 225.454 460.491 222.06C460.803 220.649 461.122 219.231 461.237 217.798C461.39 215.953 462.194 214.484 463.44 213.211C465.548 211.055 468.084 209.6 471.004 208.812C472.779 208.334 474.517 207.878 476.437 207.958C480.407 208.124 483.276 210.157 485.863 212.842C486.703 213.71 487.515 214.6 488.377 215.447C489.833 216.872 490.818 218.493 490.869 220.613C490.898 221.763 491.188 222.914 491.159 224.057C491.108 226.242 490.963 228.435 490.746 230.613C490.644 231.597 490.058 232.378 489.319 233.109C487.029 235.388 484.508 237.248 481.364 238.196C480.907 238.333 480.516 238.782 480.154 239.143C479.176 240.12 478.227 241.119 477.183 242.19C477.372 243.839 477.524 245.619 477.777 247.385C478.075 249.433 479.255 250.909 481.125 251.726C483.936 252.949 486.826 253.991 489.623 255.243C493.535 256.987 497.411 258.795 501.258 260.67C503.497 261.762 505.134 263.557 506.409 265.691C508.807 269.714 511.111 273.802 513.676 277.724C519.16 286.117 523.138 295.169 526.347 304.64C528.071 309.713 528.97 314.807 528.789 320.125C528.586 326.029 527.101 331.651 525.058 337.165C523.341 341.795 521.102 346.159 518.624 350.413C516.414 354.212 514.234 358.04 511.836 361.715C509.184 365.782 506.315 369.711 502.867 373.162C502.367 373.661 502.367 374.161 502.367 374.718C502.381 378.712 502.446 382.699 502.432 386.693C502.41 395.368 502.504 404.051 502.258 412.726C502.004 421.742 501.41 430.75 500.932 439.759C500.526 447.327 499.657 454.852 498.672 462.37C498.179 466.097 497.955 469.852 497.549 473.593C497.013 478.556 495.825 483.382 494.281 488.122C493.571 490.307 492.601 492.398 491.709 494.619C493.579 496.964 495.057 499.677 495.651 502.817C496.151 505.451 495.107 506.826 492.383 506.884C487.812 506.971 483.233 506.971 478.654 506.978C477.85 506.978 477.031 506.862 476.249 506.696C474.459 506.312 473.735 505.61 473.873 503.852C474.133 500.437 474.829 497.159 478.234 495.307C478.43 495.198 478.611 495.046 478.944 494.808C478.654 493.91 478.401 492.977 478.06 492.08C475.821 486.074 474.691 479.794 473.959 473.484C472.779 463.318 471.844 453.116 471.054 442.906C470.663 437.841 470.888 432.733 470.735 427.639C470.576 422.147 470.294 416.663 470.076 411.171C469.946 407.821 469.902 404.463 469.692 401.113C469.381 396.208 469.018 391.302 468.562 386.41C467.968 380.079 467.33 373.755 466.584 367.439C466.28 364.855 465.657 362.316 464.498 359.95C464.346 359.646 464.15 359.364 463.904 358.958C463.52 359.168 463.15 359.299 462.868 359.537C457.47 364.146 452.623 369.24 448.798 375.26C447.813 376.816 446.632 378.27 445.407 379.645C439.923 385.817 435.214 392.539 431.171 399.71C429.99 401.808 429.164 404.131 428.411 406.431C428.107 407.35 428.31 408.501 428.498 409.514C429.954 417.473 432.7 425.013 436.199 432.284C438.88 437.863 441.669 443.391 444.321 448.977C446.009 452.53 447.429 456.205 449.146 459.736C451.102 463.752 452.739 467.884 454.13 472.109C454.579 473.477 454.942 474.881 455.318 476.277C455.63 477.428 456.115 478.31 457.296 478.918C459.086 479.852 460.274 481.451 461.085 483.303C461.65 484.584 461.556 485.763 460.593 486.848C455.311 492.76 450.066 498.7 444.748 504.583C443.169 506.327 440.995 506.037 439.583 504.207C437.742 501.812 437.815 499.084 438.242 496.399C438.858 492.565 440.452 489.113 443.227 486.291C443.35 486.197 443.422 486.045 443.495 485.944ZM489.5 492.579C489.623 492.304 489.782 491.993 489.898 491.675C492.492 484.461 494.426 477.116 494.89 469.41C495.158 464.968 495.709 460.54 496.143 456.111C496.708 450.301 497.404 444.498 497.802 438.673C498.215 432.501 498.375 426.308 498.592 420.129C498.788 414.405 498.933 408.682 499.063 402.958C499.099 401.287 498.954 399.608 498.976 397.93C499.019 394.92 499.251 391.917 499.186 388.914C499.077 383.422 498.802 377.93 498.607 372.438C498.302 363.937 497.773 355.456 496.788 346.998C496.607 345.471 496.368 343.959 496.143 342.36C495.527 342.454 495.136 342.548 494.745 342.57C492.782 342.693 490.804 343.011 488.869 342.866C483.849 342.483 478.85 341.897 473.844 341.369C467.838 340.739 461.984 339.386 456.202 337.678C450.305 335.927 444.639 333.605 439.264 330.587C438.844 330.349 438.344 330.255 437.815 330.067C437.286 334.401 435.866 338.221 433.511 341.658C431.686 344.328 429.758 346.94 427.882 349.574C425.767 352.54 423.434 355.384 421.593 358.51C417.435 365.586 413.139 372.59 409.364 379.898C407.111 384.254 404.271 388.299 402.51 392.93C401.685 395.108 401.062 397.315 400.822 399.63C400.496 402.734 401.192 405.737 401.779 408.732C402.706 413.465 404.343 417.98 406.198 422.408C407.669 425.924 409.386 429.339 411.103 432.747C412.719 435.946 414.53 439.05 416.16 442.241C419.5 448.796 423.035 455.236 427.389 461.176C429.679 464.302 432.048 467.385 434.511 470.373C437.38 473.86 440.372 477.239 443.35 480.633C444.371 481.791 445.509 482.847 446.885 483.563C449.023 482.095 450.906 480.495 452.464 478.506C453.109 477.681 453.254 476.993 452.812 475.995C450.914 471.719 449.139 467.384 447.233 463.108C444.502 456.98 441.72 450.887 438.923 444.788C435.989 438.377 432.953 432.009 430.092 425.555C428.128 421.127 426.201 416.663 425.317 411.844C424.948 409.847 424.39 407.77 424.977 405.831C425.759 403.248 426.73 400.65 428.085 398.328C430.425 394.341 433.084 390.535 435.685 386.714C437.25 384.421 438.945 382.221 440.626 380.007C442.727 377.243 444.741 374.399 447.016 371.787C450.892 367.345 454.92 363.025 458.941 358.705C459.919 357.656 461.078 356.752 462.244 355.905C463.983 354.646 465.976 355.167 466.881 357.099C468.403 360.362 469.591 363.741 470.025 367.337C470.373 370.21 470.649 373.082 470.96 375.962C471.409 380.101 471.967 384.233 472.271 388.386C472.655 393.574 472.829 398.783 473.09 403.979C473.329 408.834 473.583 413.682 473.764 418.537C473.829 420.266 473.662 422.003 473.662 423.739C473.67 426.228 473.706 428.71 473.786 431.199C473.945 436.517 474.017 441.843 474.343 447.146C474.604 451.415 475.278 455.656 475.611 459.925C476.415 470.098 478.241 480.098 480.552 490.018C480.813 491.132 481.248 492.195 481.639 493.397C484.334 493.252 486.95 493.65 489.5 492.579ZM521.609 302.137C521.421 301.421 521.341 300.784 521.087 300.212C519.624 296.877 518.168 293.541 516.617 290.249C515.661 288.208 514.495 286.269 513.509 284.243C510.481 278.042 507.061 272.073 502.924 266.545C502.033 265.351 501.012 264.15 499.802 263.332C496.73 261.248 493.129 260.235 489.84 258.701C487.493 260.865 484.834 262.088 481.951 262.876C477.205 264.164 472.387 264.49 467.49 263.969C464.077 263.6 460.94 262.551 458.129 260.575C454.942 258.325 451.971 255.851 449.935 252.443C449.885 252.356 449.754 252.32 449.53 252.175C442.278 254.005 434.953 252.652 427.52 251.705C427.389 257.435 425.513 262.681 424.1 268.086C424.361 268.296 424.622 268.513 424.89 268.723C427.491 270.756 430.15 272.71 432.664 274.844C434.062 276.031 435.402 277.377 436.445 278.882C438.662 282.08 440.597 285.473 440.887 289.475C441.198 293.801 441.292 298.136 440.923 302.47C440.35 309.213 439.843 315.957 439.293 322.701C438.938 327.028 439.104 327.331 443.002 329.184C443.263 329.307 443.524 329.437 443.799 329.524C448.284 331.058 452.739 332.7 457.267 334.097C466.917 337.078 476.77 339.06 486.863 339.798C489.782 340.008 492.637 339.625 495.383 338.583C496.991 337.975 497.368 337.447 497.397 335.747C497.426 333.836 497.397 331.926 497.411 330.016C497.44 324.987 497.339 319.944 497.563 314.922C497.708 311.645 498.338 308.381 498.744 305.111C498.896 303.902 498.99 302.694 499.186 301.493C499.338 300.531 499.845 299.727 500.816 299.424C501.693 299.149 502.425 299.576 502.932 300.277C504.598 302.571 506.351 304.807 507.358 307.506C507.496 307.868 507.706 308.208 507.923 308.635C512.256 305.965 516.769 303.939 521.609 302.137ZM425.245 250.909C424.194 250.351 423.296 249.946 422.463 249.433C417.746 246.56 413.45 243.13 409.4 239.404C406.807 237.016 404.38 234.448 401.866 231.973C400.714 230.837 399.424 229.824 398.388 228.594C395.483 225.15 392.643 221.64 389.825 218.117C386.615 214.094 383.442 210.042 380.298 205.961C379.82 205.346 379.472 204.55 379.312 203.79C378.885 201.815 378.566 199.811 378.269 197.813C377.892 195.295 377.479 192.792 376.175 190.542C375.82 189.934 375.291 189.471 374.639 189.739C374.321 189.869 374.212 190.563 374.067 191.019C374.002 191.229 374.06 191.475 374.082 191.707C374.328 195.281 374.495 198.87 374.864 202.43C375.009 203.834 375.538 205.223 376.038 206.569C376.559 207.972 377.364 209.282 377.842 210.693C380.515 218.594 384.029 226.141 387.318 233.789C390.448 241.061 394.932 247.262 401.366 251.972C407.488 256.444 413.624 260.894 419.761 265.344C420.355 265.771 420.992 266.132 421.818 266.661C423.586 261.393 425.158 256.357 425.245 250.909ZM508.873 311.232C509.199 312.057 509.423 312.715 509.706 313.345C511.973 318.338 512.749 323.634 512.785 329.039C512.814 333.011 511.691 336.81 510.3 340.5C508.068 346.39 505.902 352.309 503.337 358.047C502.214 360.558 501.917 362.938 502.178 365.543C502.265 366.418 502.301 367.294 502.388 368.56C503.048 367.779 503.432 367.359 503.772 366.91C505.062 365.203 506.373 363.517 507.597 361.766C513.886 352.772 519.168 343.228 522.775 332.838C525.202 325.841 525.898 318.649 524.608 311.305C524.166 308.801 523.427 306.413 522.181 303.939C517.697 306.341 512.85 307.831 508.873 311.232ZM501.447 354.603C501.577 354.617 501.707 354.632 501.838 354.646C502.033 354.176 502.236 353.705 502.417 353.228C503.352 350.797 504.301 348.38 505.199 345.934C506.518 342.36 507.837 338.785 509.075 335.182C509.851 332.925 510.169 330.587 510.104 328.185C510.039 325.66 509.285 323.287 508.684 320.884C507.634 316.673 506.308 312.549 504.547 308.569C504.018 307.376 503.41 306.24 502.403 305.002C502.048 307.897 501.729 310.472 501.425 313.056C500.787 318.475 500.954 323.916 500.939 329.35C500.932 331.608 500.99 333.865 500.925 336.123C500.874 337.845 500.903 339.61 499.599 341.029C499.396 341.253 499.432 341.788 499.49 342.157C499.925 345.015 500.389 347.866 500.845 350.717C501.048 352.012 501.244 353.307 501.447 354.603ZM457.463 249.917C462.672 257.479 475.198 261.031 483.921 256.27C483.276 255.959 482.704 255.713 482.161 255.409C480.755 254.613 479.313 253.868 477.973 252.971C476.386 251.907 475.285 250.446 474.966 248.492C474.677 246.741 474.372 244.99 474.046 243.065C471.025 243.767 468.164 243.34 465.36 242.016C463.128 245.069 460.875 248.007 457.463 249.917ZM464.092 219.969C463.838 220.476 463.621 220.758 463.541 221.076C462.491 225.114 461.716 229.194 462.216 233.391C462.324 234.339 462.679 235.301 463.099 236.17C464.744 239.527 467.562 240.952 471.228 241.054C473.423 241.112 475.387 240.562 476.937 239.035C477.951 238.036 478.828 236.85 479.589 235.634C480.538 234.122 480.451 233.934 479.226 232.653C478.705 232.11 478.198 231.553 477.618 231.076C473.17 227.407 468.707 223.753 464.092 219.969ZM442.763 501.631C448.588 496.399 453.283 490.336 458.47 484.547C457.217 483.231 456.115 482.073 455.145 481.053C452.66 483.013 450.457 484.974 448.03 486.61C444.284 489.135 442.343 492.579 441.952 496.993C441.814 498.563 441.995 500.068 442.763 501.631ZM492.224 504.243C492.224 503.628 492.267 503.338 492.217 503.063C492.05 502.217 491.876 501.363 491.651 500.531C491.028 498.201 489.84 497.195 487.435 497.217C485.305 497.239 483.16 497.391 481.045 497.658C480.386 497.738 479.661 498.281 479.205 498.809C478.574 499.54 478.075 500.415 477.676 501.305C477.292 502.173 476.807 503.085 477.321 504.438C482.168 504.532 487.094 504.149 492.224 504.243ZM452.783 251.596C457.006 256.48 461.339 260.568 467.838 261.386C462.331 259.295 457.55 256.234 454.174 251.234C453.833 251.321 453.507 251.408 452.783 251.596ZM488.109 258.036C486.805 257.167 486.544 258.028 486.211 258.759C486.739 258.557 487.276 258.354 488.109 258.036Z" fill="black"/>
<path d="M488.109 258.035C487.275 258.354 486.739 258.556 486.21 258.759Z" fill="white"/>
<path d="M468.837 235.547C468.04 236.662 467.562 236.705 465.621 235.967C463.838 235.294 463.193 234.491 463.375 232.834C464.295 233.463 465.055 234.129 465.939 234.563C466.83 235.005 467.83 235.215 468.837 235.547Z" fill="black"/>
<path d="M214.462 422.198C213.984 424.086 213.571 425.888 213.079 427.66C212.528 429.65 211.485 431.387 210.043 432.856C209.29 433.623 208.442 434.563 207.225 434.187C206.066 433.832 205.638 432.675 205.435 431.604C205.138 430.077 204.899 428.514 204.87 426.966C204.812 424.079 204.892 421.185 204.979 418.297C205.051 415.91 205.095 415.91 206.334 414.52C204.906 414.188 204.653 413.11 204.798 411.93C204.957 410.599 205.211 409.275 206.739 408.718C208.551 408.059 211.282 408.703 212.608 410.288C213.209 411.011 213.803 411.301 214.68 411.098C214.788 411.069 214.912 411.062 215.028 411.062C216.904 411.062 218.411 410.374 220.012 409.282C224.084 406.503 228.735 405.042 233.654 404.564C239.624 403.985 245.572 404.492 251.498 405.092C254.787 405.425 258.055 405.896 261.322 404.933C263.177 404.383 263.387 404.325 263.264 402.473C263.112 400.237 262.865 397.973 262.358 395.795C260.801 389.094 259.12 382.423 257.454 375.745C256.838 373.277 256.171 370.817 255.476 368.372C253.918 362.865 252.215 357.388 251.317 351.722C250.977 349.559 250.701 347.374 250.549 345.181C250.296 341.433 250.013 337.678 250.006 333.923C249.991 328.503 250.933 323.214 252.766 318.098C252.976 317.505 253.15 316.832 253.541 316.369C254.403 315.342 254.222 314.314 253.976 313.135C252.998 308.432 252.273 303.678 252.056 298.88C251.853 294.488 251.802 290.096 251.701 285.697C251.614 281.942 251.52 278.194 251.462 274.438C251.411 270.958 250.093 267.897 247.738 265.51C243.877 261.602 241.102 256.899 237.704 252.666C234.777 249.02 232.046 245.178 229.597 241.198C227.025 237.023 224.627 232.689 222.606 228.224C219.556 221.481 216.947 214.542 214.919 207.415C213.905 203.862 213.122 200.237 212.267 196.641C212.122 196.026 212.101 195.382 212.057 194.752C211.992 193.696 211.601 192.82 211.014 191.909C208.623 188.211 206.565 184.319 205.138 180.144C204.515 178.327 204.58 176.482 206.145 174.999C207.312 173.892 208.71 173.61 210.13 174.355C211.876 175.274 213.535 176.309 214.897 177.785C215.339 178.262 215.969 178.624 216.578 178.892C218.273 179.637 219.251 180.773 219.287 182.727C219.324 184.984 219.411 187.227 218.549 189.362C223.787 194.485 227.213 200.83 231.191 206.778C236.335 214.477 241.355 222.262 246.724 229.802C249.948 234.324 253.838 238.347 258.345 241.676C260.091 242.963 262.032 243.991 264.213 245.337C264.213 243.976 264.235 243.021 264.206 242.066C264.097 237.826 264.343 233.586 265.292 229.476C266.314 225.055 268.705 221.408 273.052 219.419C276.616 217.783 280.326 216.93 284.158 218.109C286.462 218.818 288.679 219.889 290.787 221.068C291.787 221.626 292.468 222.783 293.214 223.731C293.75 224.411 294.127 225.207 294.62 225.924C295.359 227.002 295.489 228.029 294.562 229.085C294.228 229.469 293.997 229.947 293.794 230.272C295.627 236.082 295.953 241.603 292.214 246.921C293.062 248.361 293.968 249.888 294.938 251.523C295.888 251.357 296.815 251.27 297.684 251.017C305.733 248.658 313.79 246.306 321.81 243.868C325.773 242.66 329.265 240.511 332.735 238.268C337.908 234.917 342.023 230.446 346.189 226.039C348.094 224.028 349.782 221.806 351.478 219.6C354.122 216.163 356.687 212.661 359.287 209.18C359.527 208.855 359.737 208.471 360.055 208.247C362.555 206.489 363.547 203.905 364.113 201.069C364.54 198.913 364.873 196.735 365.446 194.622C365.801 193.305 366.525 192.09 367.112 190.845C367.228 190.592 367.438 190.36 367.655 190.172C368.46 189.492 369.329 188.812 370.459 189.246C371.481 189.644 371.597 190.671 371.633 191.583C371.821 196.438 372.046 201.293 372.089 206.156C372.111 208.934 370.734 211.228 368.952 213.29C368.554 213.753 368.177 214.274 367.967 214.839C366.764 218.087 365.75 221.416 364.41 224.599C362.526 229.071 360.657 233.557 358.165 237.761C354.629 243.738 350.369 249.135 345.131 253.679C342.479 255.98 339.516 257.963 336.568 259.895C332.351 262.652 328.019 265.213 323.737 267.876C321.107 269.511 318.796 271.479 317.014 274.062C316.007 275.524 315.347 277.087 315.029 278.816C313.275 288.121 313.869 297.361 315.833 306.55C316.717 310.675 317.782 314.763 318.658 318.894C319.028 320.631 319.404 322.396 318.767 324.198C318.122 326.021 317.014 327.121 315 327.23C313.391 327.309 311.79 327.483 310.015 327.628C310.616 329.849 311.182 332.02 311.797 334.176C313.123 338.785 314.521 343.372 315.811 347.989C317.492 354.002 319.035 360.051 320.737 366.056C322.614 372.677 324.585 379.261 326.533 385.86C327.895 390.462 329.388 395.02 330.648 399.651C331.974 404.528 331.996 409.521 331.156 414.463C330.127 420.504 328.968 426.524 327.678 432.516C326.157 439.578 324.44 446.603 322.802 453.644C321.781 458.036 320.89 462.464 319.672 466.805C318.021 472.681 315.289 478.1 312.087 483.295C310.834 485.336 309.167 486.175 306.827 485.632C306.603 485.582 306.371 485.575 306.146 485.56C306.096 485.553 306.038 485.596 305.936 485.64C305.559 487.043 305.168 488.469 304.777 489.916C306.342 490.842 307.979 491.775 309.58 492.767C311.949 494.228 313.261 496.565 314.514 498.924C315.058 499.944 315.152 501.052 314.405 502.05C313.609 503.114 312.413 503.309 311.268 503.005C309.378 502.506 307.516 501.862 305.683 501.167C302.386 499.916 299.112 498.606 295.851 497.253C295.33 497.036 294.938 496.5 294.41 496.044C292.33 496.696 291.099 496.363 289.773 494.872C288.969 493.968 288.867 493.063 289.345 492C290.15 490.227 291.294 488.686 292.816 487.499C293.75 486.768 294.25 485.929 294.497 484.815C294.678 483.983 295.025 483.187 295.322 482.297C293.685 481.501 293.547 480.054 293.25 478.527C292.656 475.488 292.381 472.456 292.736 469.388C292.975 467.326 293.207 465.25 293.649 463.224C294.801 457.92 296.076 452.638 297.286 447.341C299.104 439.375 299.814 431.242 301.075 423.189C301.647 419.528 302.147 415.874 302.364 412.183C302.538 409.166 302.278 406.178 301.553 403.226C300.901 400.592 300.604 397.85 299.713 395.31C298.228 391.063 296.373 386.938 294.707 382.756C292.207 376.512 288.621 370.803 285.788 364.725C285.701 364.537 285.527 364.392 285.129 363.907C285.564 366.867 285.846 369.442 286.324 371.982C287.599 378.74 288.338 385.592 289.932 392.293C290.374 394.145 290.526 396.062 290.845 397.944C291.2 400.049 291.642 402.148 291.968 404.253C292.381 406.966 292.113 409.673 291.715 412.372C291.005 417.14 289.259 421.51 286.708 425.577C284.673 428.825 281.717 430.815 277.993 431.691C273.537 432.747 269.024 432.877 264.532 432.139C259.562 431.329 254.642 430.244 249.68 429.426C244.703 428.601 239.914 427.009 235.002 425.96C230.988 425.106 226.895 424.636 222.83 424.028C221.106 423.768 219.382 423.58 218.034 422.277C217.824 422.075 217.426 421.966 217.114 421.973C216.245 421.995 215.39 422.111 214.462 422.198ZM221.265 420.91C221.678 420.91 221.968 420.931 222.243 420.91C226.163 420.555 229.981 421.221 233.777 422.067C236.32 422.632 238.856 423.211 241.392 423.804C247.361 425.2 253.317 426.691 259.308 427.986C264.416 429.093 269.552 429.701 274.819 428.898C279.579 428.174 282.84 425.634 285.187 421.597C286.947 418.58 287.65 415.244 288.244 411.887C288.932 408.023 288.454 404.137 287.969 400.302C287.455 396.236 286.433 392.235 285.795 388.183C284.68 381.099 283.694 374.001 282.615 366.917C282.151 363.857 282.18 360.81 282.651 357.764C282.716 357.352 282.984 356.657 283.173 356.65C283.687 356.643 284.318 356.802 284.694 357.135C285.252 357.619 285.709 358.256 286.071 358.907C287.281 361.078 288.447 363.27 289.585 365.477C292.823 371.743 296.337 377.872 299.01 384.42C300.981 389.246 302.676 394.159 303.9 399.224C304.857 403.168 305.248 407.198 305.422 411.257C305.617 415.722 305.552 420.164 304.842 424.578C304.045 429.484 303.364 434.419 302.401 439.288C301.705 442.797 300.575 446.22 299.706 449.693C298.539 454.345 297.38 458.998 296.337 463.679C295.344 468.1 294.815 472.565 295.518 477.109C295.641 477.905 295.873 478.498 296.656 478.889C299.995 480.56 303.444 481.805 307.233 482.029C308.399 482.094 309.015 481.805 309.508 480.727C311.066 477.304 312.775 473.954 314.333 470.539C315.094 468.867 315.825 467.138 316.275 465.365C317.702 459.765 319.057 454.143 320.325 448.506C321.752 442.19 323.07 435.851 324.403 429.52C325.092 426.242 325.968 423.001 326.084 419.622C326.142 418.066 326.374 416.518 326.613 414.976C327.403 409.839 327.475 404.702 326.287 399.63C325.338 395.585 324.157 391.584 323.034 387.582C321.172 380.962 319.245 374.363 317.383 367.742C314.579 357.779 311.826 347.808 309.023 337.844C308.023 334.299 306.936 330.775 305.9 327.28C303.763 327.056 301.865 326.919 299.974 326.651C294.873 325.927 289.802 325.052 284.694 324.408C275.921 323.301 267.48 320.855 259.055 318.315C258.345 318.098 257.635 317.896 256.888 317.679C256.657 318.171 256.454 318.525 256.316 318.894C254.925 322.664 254.027 326.557 253.795 330.558C253.273 339.516 254.143 348.351 256.389 357.041C257.91 362.916 259.41 368.798 260.895 374.688C262.576 381.36 264.22 388.045 265.879 394.724C266.597 397.596 267.089 400.505 266.886 403.479C266.691 406.38 265.705 407.856 262.858 408.327C260.149 408.775 257.33 408.841 254.577 408.696C250.477 408.479 246.398 407.943 242.304 407.524C235.704 406.836 229.423 407.893 223.345 410.606C221.483 411.438 220.736 412.444 220.671 414.434C220.599 416.554 220.512 418.659 221.265 420.91ZM216.897 190.917C214.999 191.742 214.694 192.119 214.97 193.233C215.969 197.27 216.94 201.322 218.02 205.338C218.788 208.182 219.737 210.975 220.57 213.804C222.272 219.585 224.359 225.229 227.119 230.583C230.14 236.451 233.77 241.95 237.718 247.254C241.935 252.912 245.992 258.694 250.788 263.896C252.498 265.748 254.005 267.782 254.403 270.314C254.787 272.76 254.932 275.249 255.019 277.723C255.092 279.8 254.831 281.884 254.874 283.953C254.976 288.577 255.142 293.201 255.338 297.824C255.526 302.281 256.019 306.702 257.033 311.058C257.482 312.997 258.352 314.423 260.453 314.958C265.72 316.304 270.914 317.968 276.225 319.09C286.491 321.246 296.931 322.215 307.392 322.816C309.349 322.925 311.326 322.83 313.283 322.679C315.123 322.541 315.565 321.861 315.188 320.03C314.92 318.728 314.565 317.447 314.246 316.152C312.565 309.358 311.138 302.534 310.595 295.516C310.066 288.685 310.79 282.007 312.174 275.357C312.587 273.382 313.558 271.732 315.13 270.387C317.905 268.006 320.94 266.016 323.969 263.983C330.257 259.757 336.611 255.619 342.458 250.756C348.145 246.017 352.869 240.511 356.245 233.97C358.947 228.738 361.251 223.297 363.678 217.921C364.221 216.72 364.562 215.417 364.917 214.137C365.033 213.731 365.062 213.124 364.837 212.841C364.134 211.959 363.381 211.069 362.149 210.642C361.599 211.416 361.055 212.082 360.613 212.82C356.745 219.238 352.122 225.077 347.094 230.619C341.458 236.828 334.923 241.827 327.156 245.069C324.548 246.162 321.839 247.044 319.129 247.862C312.87 249.743 306.603 251.61 300.292 253.303C297.134 254.15 293.859 254.598 290.526 255.25C290.425 255.937 290.381 256.805 290.171 257.637C288.932 262.688 287.73 267.738 285.803 272.593C284.02 277.08 282.159 281.428 278.109 284.467C276.826 285.429 275.696 285.69 274.283 285.126C273.907 284.974 273.552 284.764 273.16 284.677C269.248 283.765 267.234 281.218 266.886 277.181C266.698 275.054 266.691 272.905 266.394 270.792C266.031 268.216 265.481 265.676 264.952 263.129C264.452 260.684 264.126 258.231 264.22 255.727C264.271 254.396 264.198 253.064 264.285 251.74C264.358 250.677 263.974 250.083 263.01 249.584C261.532 248.817 260.069 247.942 258.765 246.914C256.635 245.228 254.606 243.405 252.585 241.596C247.673 237.211 243.601 232.103 239.972 226.64C237.733 223.268 235.473 219.903 233.299 216.495C228.655 209.238 224.062 201.945 219.44 194.673C218.643 193.399 217.766 192.191 216.897 190.917ZM294.989 489.055C293.236 490.032 292.678 491.718 291.961 493.338C292.932 493.693 292.946 493.707 293.25 493.432C293.598 493.129 293.895 492.767 294.243 492.47C295.605 491.32 296.619 491.522 297.344 493.172C297.706 493.997 297.873 494.916 298.141 495.842C302.633 497.405 307.132 498.968 311.935 500.639C310.008 496.956 307.747 494.069 304.226 492.383C303.625 492.094 302.944 491.877 302.285 491.833C299.626 491.631 297.213 490.82 294.989 489.055ZM208.094 430.446C208.587 429.867 208.913 429.6 209.087 429.259C210.014 427.407 210.883 425.533 211.804 423.674C212.195 422.878 212.043 422.161 211.789 421.351C211.398 420.099 211.007 418.797 210.949 417.502C210.869 415.693 211.094 413.862 211.195 411.966C210.137 411.272 208.536 410.809 207.79 411.156C207.507 411.286 207.37 411.72 207.123 412.075C207.515 412.321 207.754 412.466 207.985 412.618C209.645 413.71 209.782 414.853 208.42 416.3C208.181 416.554 207.855 416.735 207.674 417.017C207.435 417.386 207.152 417.813 207.145 418.218C207.058 422.19 207.29 426.148 208.094 430.446ZM217.013 182.104C216.607 181.931 216.397 181.75 216.194 181.764C214.658 181.858 213.658 181.063 212.622 180.021C211.709 179.109 210.499 178.479 209.377 177.799C209.108 177.64 208.659 177.778 208.029 177.778C208.717 182.3 211.166 185.802 213.093 189.535C214.223 189.109 215.18 188.747 216.23 188.342C216.491 186.265 216.752 184.174 217.013 182.104ZM367.409 210.512C368.677 208.761 369.597 206.872 369.474 204.513C369.314 201.402 369.365 198.283 369.314 195.165C369.3 194.282 369.249 193.392 369.213 192.509C369.083 192.495 368.945 192.488 368.814 192.473C367.163 197.632 367.286 203.283 364.482 207.986C365.562 208.913 366.467 209.694 367.409 210.512ZM290.787 243.34C292.837 240.59 293.359 234.216 291.881 231.698C290.671 232.342 289.454 232.986 288.107 233.702C288.462 236.98 289.86 239.968 290.787 243.34ZM303.574 485.155C301.408 484.533 299.438 483.968 297.25 483.339C297.003 484.829 296.764 486.262 296.532 487.637C298.467 488.744 300.307 489.279 302.422 489.511C302.799 488.078 303.161 486.703 303.574 485.155ZM217.179 419.477C217.302 417.06 217.404 414.904 217.527 412.581C216.179 412.712 214.948 412.827 213.694 412.95C213.216 415.259 212.869 417.379 213.296 419.477H217.179Z" fill="black"/>
<path d="M208.565 144.037C209.529 144.855 209.666 145.636 209.63 146.461C209.536 148.364 209.427 150.26 209.304 152.163C209.137 154.695 208.956 157.228 208.761 159.753C208.71 160.411 208.558 161.055 208.442 161.793C207.428 161.417 207.616 160.701 207.529 160.129C206.979 156.381 207.442 152.64 207.674 148.899C207.732 147.981 207.768 147.047 207.913 146.143C208.022 145.499 208.297 144.876 208.565 144.037Z" fill="black"/>
<path d="M191.503 149.037C192.076 149.681 192.677 150.296 193.206 150.976C196.01 154.58 198.647 158.299 200.813 162.329C201.378 163.378 202.059 164.355 202.827 165.585C202.349 165.498 201.9 165.556 201.704 165.361C201.132 164.796 200.596 164.174 200.154 163.508C197.603 159.652 195.075 155.788 192.576 151.91C192.025 151.063 191.597 150.144 191.112 149.254C191.242 149.182 191.373 149.109 191.503 149.037Z" fill="black"/>
<path d="M371.06 157.678C372.017 163.459 371.959 169.197 370.568 175.304C370.213 174.681 369.966 174.45 369.959 174.211C369.93 168.669 370.285 163.155 371.06 157.678Z" fill="black"/>
<path d="M356.947 160.824C358.867 163.06 363.468 174.572 363.779 177.018C362.939 176.605 362.939 176.605 361.627 173.436C361.055 172.047 360.476 170.665 359.91 169.275C359.345 167.886 358.758 166.504 358.266 165.086C357.773 163.682 357.382 162.25 356.947 160.824Z" fill="black"/>
<path d="M386.137 161.75C384.855 166.489 381.739 170.281 379.414 174.803C379.254 174.304 379.08 174.022 379.109 173.768C379.146 173.378 379.283 172.98 379.45 172.618C381.232 168.718 383.449 165.1 386.137 161.75Z" fill="black"/>
<path d="M217.346 165.209C217.846 162.908 226.214 152.648 229.387 150.311C225.815 155.737 221.316 160.064 217.346 165.209Z" fill="black"/>
<path d="M162.198 454.498C162.357 454.302 162.509 454.136 162.64 453.955C167.11 447.986 171.58 442.016 176.043 436.054C176.564 435.359 177.137 434.701 177.6 433.97C180.788 429.014 184.034 424.086 187.106 419.058C188.395 416.952 189.482 414.68 190.366 412.372C192.155 407.69 192.192 402.864 190.844 398.067C190.315 396.186 189.533 394.355 188.692 392.582C184.65 384.073 180.549 375.593 176.463 367.113C176.267 366.7 176.014 366.324 175.702 365.796C170.848 367.894 166.045 369.971 161.176 372.084C161.386 372.511 161.531 372.887 161.734 373.227C164.378 377.706 167.023 382.185 169.667 386.664C172.761 391.895 175.854 397.134 177.144 403.175C177.441 404.572 177.745 406.033 177.644 407.437C177.441 410.396 176.572 413.218 175.253 415.896C173.616 419.21 172.051 422.56 170.457 425.895C168.914 429.13 167.559 432.465 165.813 435.584C163.103 440.417 160.133 445.113 157.279 449.867C156.866 450.547 156.467 451.227 156.04 451.936C157.8 453.781 159.764 454.664 162.198 454.498ZM137.688 451.813C138.746 450.106 139.702 448.456 140.753 446.879C142.448 444.324 144.245 441.843 145.933 439.288C148.128 435.953 150.294 432.603 152.403 429.216C154.815 425.338 157.235 421.453 159.481 417.48C160.814 415.121 161.894 412.611 162.937 410.107C164.147 407.198 163.886 404.253 162.944 401.287C161.372 396.345 158.706 391.924 156.387 387.329C154.453 383.502 152.084 379.956 149.584 376.375C144.303 377.988 139.021 379.594 133.573 381.251C134.073 381.982 134.472 382.539 134.841 383.111C137.275 386.91 139.753 390.672 142.108 394.522C143.129 396.193 144.078 397.951 144.745 399.782C146.223 403.87 146.853 408.11 145.527 412.365C144.6 415.338 143.499 418.269 142.274 421.134C139.739 427.089 137.073 432.993 134.457 438.919C133.363 441.394 132.262 443.861 131.153 446.35C132.9 448.615 135.001 450.381 137.688 451.813ZM131.921 245.395C135.834 256.531 140.695 267.167 147.563 276.856C147.882 276.045 148.092 275.271 148.157 274.489C148.454 271.096 148.73 267.702 148.99 264.302C149.527 257.269 149.816 250.228 149.2 243.181C149.135 242.399 148.983 241.618 148.86 240.721C143.434 243.369 137.746 244.339 131.921 245.395ZM128.306 456.191C128.603 455.916 128.799 455.706 129.024 455.532C130.581 454.302 132.074 454.765 132.545 456.676C132.718 457.399 132.834 458.159 132.827 458.897C132.805 460.178 133.356 461.097 134.334 461.849C134.885 462.269 135.385 462.746 135.935 463.173C137.377 464.302 138.833 465.409 140.376 466.596C140.463 466.227 140.543 466.068 140.521 465.916C140.47 465.575 140.405 465.228 140.297 464.91C139.297 462.095 138.253 459.288 137.283 456.459C136.776 454.997 136.022 453.897 134.515 453.217C133.334 452.682 132.327 451.726 131.284 450.916C130.661 450.424 130.11 449.838 129.371 449.151C128.611 449.881 127.806 450.46 127.241 451.22C125.43 453.644 125.618 454.469 128.306 456.191ZM166.4 470.271C166.103 469.309 165.951 468.658 165.697 468.057C164.538 465.293 163.27 462.573 162.205 459.765C161.553 458.043 160.684 456.987 158.713 456.574C157.221 456.263 155.902 455.12 154.315 454.244C153.627 454.91 152.787 455.735 151.997 456.502C152.874 458.282 152.874 458.282 154.547 458.296C154.721 458.296 154.895 458.289 155.069 458.296C156.619 458.405 157.068 458.89 157.213 460.424C157.279 461.089 157.3 461.907 157.691 462.37C160.14 465.286 162.821 467.978 166.4 470.271Z" fill="white"/>
<path d="M425.31 250.894C424.259 250.337 423.361 249.932 422.528 249.418C417.811 246.546 413.515 243.116 409.465 239.39C406.872 237.002 404.445 234.433 401.931 231.959C400.779 230.823 399.489 229.81 398.453 228.579C395.541 225.135 392.708 221.626 389.89 218.102C386.68 214.079 383.507 210.027 380.363 205.946C379.885 205.331 379.537 204.535 379.377 203.776C378.95 201.8 378.631 199.796 378.334 197.799C377.957 195.281 377.544 192.778 376.24 190.527C375.885 189.919 375.356 189.456 374.704 189.724C374.386 189.854 374.277 190.549 374.132 191.005C374.067 191.215 374.125 191.461 374.147 191.692C374.393 195.267 374.56 198.855 374.929 202.415C375.074 203.819 375.603 205.208 376.103 206.554C376.624 207.958 377.429 209.268 377.907 210.679C380.573 218.58 384.094 226.127 387.383 233.775C390.513 241.047 394.997 247.247 401.431 251.958C407.553 256.429 413.689 260.879 419.826 265.329C420.412 265.756 421.05 266.118 421.883 266.646C423.658 261.379 425.223 256.343 425.31 250.894ZM508.937 311.218C509.263 312.05 509.488 312.701 509.771 313.331C512.038 318.323 512.814 323.62 512.857 329.025C512.886 332.997 511.763 336.796 510.372 340.486C508.141 346.376 505.974 352.294 503.41 358.032C502.287 360.543 501.99 362.924 502.25 365.528C502.337 366.404 502.374 367.279 502.461 368.546C503.12 367.764 503.504 367.345 503.844 366.896C505.127 365.188 506.445 363.502 507.67 361.751C513.958 352.758 519.24 343.214 522.848 332.823C525.275 325.826 525.97 318.634 524.681 311.29C524.239 308.787 523.5 306.399 522.254 303.924C517.762 306.326 512.915 307.817 508.937 311.218Z" fill="white"/>
<path d="M489.5 492.579C489.623 492.304 489.782 491.993 489.898 491.674C492.492 484.46 494.426 477.116 494.89 469.41C495.151 464.968 495.708 460.539 496.143 456.111C496.708 450.301 497.404 444.498 497.802 438.673C498.222 432.501 498.375 426.308 498.592 420.121C498.795 414.398 498.932 408.674 499.063 402.951C499.099 401.28 498.954 399.601 498.976 397.922C499.019 394.912 499.251 391.909 499.186 388.907C499.077 383.415 498.802 377.923 498.606 372.438C498.302 363.936 497.766 355.449 496.788 346.998C496.614 345.471 496.368 343.959 496.143 342.36C495.527 342.454 495.136 342.548 494.745 342.57C492.782 342.693 490.804 343.018 488.862 342.866C483.841 342.483 478.842 341.897 473.836 341.368C467.83 340.739 461.976 339.386 456.195 337.678C450.29 335.927 444.632 333.605 439.256 330.587C438.836 330.349 438.336 330.255 437.807 330.066C437.279 334.401 435.859 338.221 433.504 341.658C431.678 344.328 429.751 346.94 427.875 349.581C425.759 352.548 423.426 355.391 421.586 358.517C417.428 365.593 413.131 372.597 409.357 379.905C407.104 384.261 404.264 388.306 402.503 392.937C401.677 395.115 401.054 397.322 400.815 399.637C400.489 402.741 401.185 405.744 401.771 408.74C402.699 413.472 404.336 417.994 406.191 422.415C407.661 425.931 409.379 429.347 411.096 432.755C412.711 435.953 414.522 439.057 416.152 442.248C419.492 448.803 423.028 455.243 427.382 461.183C429.671 464.309 432.04 467.392 434.504 470.38C437.373 473.867 440.365 477.247 443.342 480.64C444.364 481.798 445.501 482.854 446.878 483.571C449.015 482.102 450.899 480.503 452.457 478.52C453.101 477.695 453.246 477.008 452.804 476.009C450.906 471.733 449.131 467.399 447.226 463.123C444.494 457.001 441.712 450.902 438.916 444.802C435.982 438.391 432.946 432.017 430.084 425.57C428.121 421.141 426.194 416.677 425.31 411.858C424.94 409.861 424.383 407.784 424.969 405.845C425.752 403.262 426.723 400.665 428.085 398.349C430.425 394.362 433.084 390.556 435.685 386.736C437.25 384.442 438.945 382.243 440.626 380.029C442.727 377.264 444.741 374.421 447.016 371.809C450.892 367.366 454.92 363.046 458.941 358.727C459.919 357.678 461.078 356.773 462.244 355.927C463.983 354.675 465.975 355.189 466.881 357.12C468.403 360.384 469.591 363.763 470.025 367.359C470.366 370.231 470.648 373.104 470.96 375.984C471.409 380.123 471.967 384.254 472.271 388.4C472.655 393.588 472.829 398.798 473.09 403.993C473.329 408.848 473.583 413.696 473.764 418.551C473.829 420.28 473.655 422.017 473.662 423.753C473.67 426.243 473.713 428.724 473.785 431.213C473.945 436.532 474.017 441.857 474.343 447.161C474.604 451.43 475.278 455.67 475.611 459.932C476.415 470.105 478.241 480.105 480.545 490.025C480.806 491.139 481.24 492.21 481.632 493.404C484.334 493.252 486.949 493.65 489.5 492.579ZM442.763 501.631C448.588 496.399 453.282 490.336 458.47 484.54C457.216 483.223 456.115 482.066 455.144 481.045C452.659 483.006 450.457 484.967 448.03 486.602C444.284 489.127 442.343 492.572 441.951 496.985C441.814 498.563 441.995 500.068 442.763 501.631ZM492.224 504.243C492.224 503.628 492.267 503.338 492.216 503.063C492.05 502.217 491.876 501.363 491.651 500.531C491.028 498.201 489.84 497.195 487.442 497.217C485.305 497.239 483.168 497.391 481.052 497.658C480.393 497.745 479.668 498.281 479.212 498.809C478.582 499.54 478.082 500.422 477.683 501.305C477.299 502.173 476.814 503.085 477.328 504.438C482.168 504.532 487.094 504.149 492.224 504.243Z" fill="white"/>
<path d="M521.609 302.137C521.42 301.428 521.341 300.784 521.087 300.212C519.624 296.877 518.168 293.541 516.617 290.249C515.661 288.208 514.494 286.269 513.509 284.243C510.481 278.042 507.068 272.073 502.924 266.545C502.033 265.351 501.012 264.15 499.802 263.332C496.73 261.248 493.129 260.235 489.84 258.701C487.493 260.865 484.834 262.088 481.95 262.876C477.205 264.164 472.387 264.49 467.49 263.962C464.077 263.593 460.94 262.543 458.129 260.568C454.942 258.318 451.971 255.843 449.935 252.435C449.885 252.348 449.754 252.312 449.53 252.168C442.277 253.998 434.953 252.645 427.52 251.697C427.389 257.428 425.513 262.674 424.1 268.079C424.361 268.289 424.622 268.506 424.89 268.715C427.491 270.749 430.15 272.702 432.664 274.837C434.062 276.023 435.402 277.369 436.445 278.867C438.662 282.065 440.597 285.459 440.886 289.46C441.198 293.787 441.292 298.121 440.923 302.455C440.35 309.199 439.843 315.943 439.293 322.686C438.938 327.013 439.104 327.317 443.002 329.169C443.263 329.292 443.524 329.422 443.799 329.509C448.283 331.043 452.739 332.686 457.267 334.082C466.917 337.063 476.77 339.046 486.855 339.784C489.775 339.994 492.629 339.61 495.375 338.568C496.984 337.961 497.36 337.432 497.382 335.732C497.411 333.822 497.382 331.912 497.396 330.001C497.425 324.973 497.324 319.929 497.549 314.908C497.694 311.623 498.324 308.367 498.73 305.096C498.882 303.888 498.976 302.68 499.171 301.478C499.324 300.516 499.831 299.713 500.802 299.409C501.678 299.134 502.41 299.561 502.917 300.263C504.583 302.557 506.337 304.792 507.344 307.491C507.481 307.853 507.691 308.193 507.909 308.62C512.256 305.965 516.769 303.939 521.609 302.137Z" fill="black"/>
<path d="M221.222 420.91C221.635 420.91 221.925 420.932 222.2 420.903C226.12 420.548 229.938 421.214 233.734 422.061C236.277 422.625 238.813 423.204 241.348 423.797C247.318 425.194 253.273 426.684 259.265 427.979C264.372 429.086 269.509 429.694 274.776 428.891C279.536 428.168 282.796 425.628 285.143 421.59C286.904 418.573 287.607 415.237 288.201 411.88C288.889 408.016 288.411 404.131 287.926 400.296C287.411 396.229 286.39 392.228 285.752 388.176C284.629 381.092 283.651 373.994 282.572 366.903C282.108 363.843 282.137 360.797 282.608 357.75C282.673 357.338 282.941 356.643 283.129 356.636C283.644 356.629 284.274 356.788 284.651 357.121C285.209 357.606 285.665 358.242 286.027 358.894C287.237 361.064 288.396 363.257 289.541 365.464C292.78 371.73 296.293 377.858 298.967 384.406C300.937 389.233 302.633 394.146 303.857 399.211C304.813 403.154 305.197 407.184 305.378 411.243C305.574 415.708 305.509 420.143 304.799 424.564C304.002 429.47 303.321 434.405 302.357 439.274C301.662 442.784 300.532 446.199 299.662 449.679C298.496 454.332 297.337 458.991 296.293 463.666C295.301 468.087 294.772 472.551 295.475 477.095C295.598 477.891 295.83 478.484 296.612 478.875C299.952 480.546 303.401 481.791 307.19 482.015C308.356 482.08 308.972 481.791 309.465 480.713C311.022 477.29 312.732 473.94 314.29 470.518C315.05 468.839 315.782 467.117 316.231 465.344C317.658 459.744 319.013 454.122 320.281 448.485C321.708 442.169 323.027 435.83 324.36 429.492C325.048 426.214 325.925 422.972 326.041 419.593C326.099 418.038 326.331 416.489 326.57 414.948C327.359 409.811 327.432 404.673 326.244 399.601C325.295 395.557 324.114 391.555 322.983 387.554C321.122 380.933 319.194 374.334 317.332 367.714C314.529 357.75 311.776 347.78 308.972 337.816C307.972 334.271 306.885 330.747 305.849 327.252C303.712 327.028 301.814 326.89 299.923 326.623C294.823 325.899 289.751 325.024 284.644 324.38C275.87 323.272 267.423 320.827 259.004 318.287C258.294 318.07 257.584 317.867 256.838 317.65C256.606 318.142 256.403 318.497 256.265 318.866C254.874 322.636 253.976 326.529 253.744 330.53C253.223 339.488 254.092 348.322 256.338 357.012C257.859 362.888 259.359 368.77 260.844 374.66C262.525 381.331 264.17 388.017 265.829 394.695C266.539 397.568 267.039 400.477 266.836 403.451C266.64 406.359 265.655 407.828 262.808 408.298C260.098 408.747 257.28 408.812 254.527 408.668C250.426 408.45 246.347 407.915 242.254 407.495C235.654 406.808 229.372 407.864 223.294 410.578C221.432 411.41 220.686 412.416 220.621 414.405C220.555 416.554 220.469 418.66 221.222 420.91ZM294.946 489.055C293.193 490.032 292.635 491.718 291.917 493.339C292.888 493.694 292.903 493.708 293.207 493.433C293.555 493.129 293.852 492.767 294.2 492.471C295.562 491.32 296.576 491.523 297.3 493.173C297.663 493.997 297.829 494.916 298.097 495.842C302.589 497.405 307.088 498.968 311.892 500.64C309.964 496.957 307.704 494.07 304.183 492.384C303.582 492.094 302.901 491.877 302.241 491.834C299.583 491.631 297.177 490.821 294.946 489.055ZM208.051 430.447C208.543 429.868 208.869 429.6 209.043 429.26C209.971 427.408 210.84 425.534 211.76 423.674C212.151 422.878 211.999 422.162 211.746 421.352C211.354 420.1 210.963 418.797 210.905 417.502C210.826 415.693 211.05 413.863 211.144 411.967C210.087 411.272 208.486 410.809 207.739 411.157C207.457 411.287 207.319 411.721 207.073 412.075C207.457 412.322 207.703 412.466 207.935 412.618C209.594 413.711 209.732 414.854 208.37 416.301C208.131 416.554 207.804 416.742 207.623 417.017C207.384 417.386 207.102 417.813 207.094 418.219C207.015 422.191 207.247 426.149 208.051 430.447Z" fill="black"/>
<path d="M217.012 182.105C216.607 181.931 216.397 181.75 216.194 181.765C214.665 181.859 213.658 181.063 212.622 180.021C211.709 179.109 210.499 178.48 209.376 177.8C209.108 177.64 208.659 177.778 208.029 177.778C208.717 182.3 211.166 185.802 213.093 189.536C214.223 189.109 215.18 188.747 216.237 188.342C216.491 186.272 216.752 184.174 217.012 182.105ZM367.409 210.512C368.677 208.761 369.59 206.872 369.474 204.513C369.314 201.402 369.365 198.284 369.314 195.165C369.3 194.282 369.249 193.392 369.213 192.51C369.082 192.495 368.945 192.488 368.814 192.473C367.163 197.632 367.286 203.283 364.482 207.987C365.561 208.913 366.467 209.694 367.409 210.512Z" fill="black"/>
<path d="M216.94 190.975C215.042 191.799 214.738 192.176 215.013 193.29C216.013 197.327 216.984 201.372 218.063 205.395C218.831 208.239 219.78 211.032 220.613 213.861C222.316 219.642 224.402 225.286 227.163 230.64C230.184 236.508 233.814 242.015 237.762 247.311C241.978 252.97 246.036 258.751 250.832 263.953C252.542 265.806 254.048 267.839 254.447 270.371C254.831 272.817 254.976 275.306 255.063 277.781C255.135 279.857 254.874 281.941 254.918 284.01C255.019 288.634 255.186 293.258 255.382 297.881C255.57 302.338 256.07 306.759 257.077 311.115C257.526 313.054 258.395 314.48 260.496 315.015C265.763 316.361 270.958 318.025 276.268 319.147C286.534 321.303 296.974 322.273 307.436 322.873C309.392 322.982 311.37 322.888 313.326 322.736C315.166 322.598 315.608 321.918 315.231 320.087C314.963 318.785 314.608 317.504 314.29 316.209C312.609 309.415 311.182 302.592 310.638 295.573C310.109 288.743 310.841 282.064 312.218 275.415C312.631 273.439 313.601 271.789 315.173 270.444C317.948 268.063 320.991 266.073 324.012 264.04C330.301 259.814 336.655 255.676 342.501 250.813C348.188 246.081 352.912 240.568 356.295 234.027C358.998 228.788 361.302 223.354 363.729 217.978C364.272 216.777 364.612 215.474 364.967 214.194C365.083 213.789 365.112 213.181 364.888 212.899C364.185 212.016 363.432 211.126 362.2 210.699C361.649 211.473 361.106 212.139 360.664 212.877C356.795 219.295 352.166 225.134 347.145 230.677C341.509 236.885 334.974 241.885 327.207 245.126C324.599 246.219 321.889 247.101 319.18 247.912C312.92 249.793 306.653 251.66 300.343 253.353C297.184 254.2 293.91 254.648 290.577 255.299C290.476 255.987 290.425 256.855 290.222 257.687C288.983 262.738 287.781 267.788 285.853 272.643C284.071 277.129 282.209 281.478 278.159 284.517C276.877 285.479 275.747 285.74 274.334 285.175C273.957 285.023 273.602 284.814 273.211 284.727C269.299 283.815 267.285 281.268 266.937 277.231C266.756 275.103 266.741 272.954 266.444 270.842C266.082 268.273 265.524 265.726 265.003 263.179C264.503 260.733 264.177 258.281 264.271 255.777C264.322 254.446 264.249 253.114 264.336 251.79C264.409 250.727 264.025 250.133 263.061 249.634C261.576 248.86 260.12 247.991 258.808 246.964C256.678 245.278 254.657 243.455 252.628 241.646C247.716 237.261 243.652 232.153 240.015 226.69C237.776 223.318 235.523 219.953 233.343 216.545C228.699 209.288 224.113 201.994 219.483 194.723C218.693 193.449 217.817 192.241 216.94 190.975Z" fill="white"/>
<path d="M501.983 148.473C503.874 148.958 505.851 149.312 507.793 149.363C512.828 149.486 517.863 149.406 522.906 149.406C522.906 149.37 522.906 149.334 522.906 149.291C526.26 149.291 529.622 149.298 532.976 149.291C534.889 149.283 536.802 149.276 538.707 149.247C541.59 149.204 543.988 148.155 545.771 145.818C548.719 141.954 547.56 137.164 542.873 135.615C542.489 135.492 542.04 135.492 541.714 135.29C541.308 135.044 540.902 134.704 540.649 134.306C539.866 133.104 539.294 131.744 538.403 130.637C536.077 127.772 533.259 125.478 529.738 124.197C527.796 123.488 525.775 123.221 523.79 123.922C521.276 124.82 518.885 126.006 516.784 127.678C516.146 128.184 515.581 128.387 514.748 128.249C511.72 127.736 508.887 128.503 506.177 129.783C502.352 131.592 500.222 134.827 498.947 138.676C498.462 140.138 498.114 141.7 498.07 143.227C497.976 145.955 499.374 147.815 501.983 148.473ZM501.91 140.094C502.859 137.055 504.286 134.349 507.17 132.62C510.126 130.854 513.27 130.391 516.501 131.404C517.69 131.773 518.66 132.873 519.689 133.698C520.131 134.052 520.421 134.595 520.856 134.964C521.377 135.405 521.993 135.579 522.58 135.036C523.101 134.552 523.051 133.966 522.674 133.474C521.906 132.475 521.095 131.498 520.24 130.579C519.82 130.131 519.254 129.812 518.733 129.414C522.935 125.862 528.209 125.522 532.404 128.495C533.983 129.61 535.454 130.811 536.497 132.432C537.084 133.343 537.555 134.342 537.924 135.355C538.352 136.527 539.026 137.359 540.265 137.67C540.714 137.786 541.17 137.887 541.598 138.061C542.858 138.575 544.061 139.168 544.177 140.767C544.314 142.634 543.844 144.204 542.032 145.123C540.612 145.839 539.113 146.223 537.519 146.208C536.07 146.194 534.628 146.172 533.179 146.179C524.905 146.179 516.632 146.237 508.358 146.165C506.648 146.15 504.917 145.752 503.236 145.369C501.896 145.065 501.396 144.356 501.439 142.988C501.454 142.004 501.62 141.013 501.91 140.094Z" fill="black"/>
<path d="M65.7107 169.774C64.6022 169.528 64.0516 168.812 63.8415 167.748C63.5372 166.222 62.5302 165.36 61.0884 164.934C60.5885 164.789 60.0959 164.565 59.5888 164.521C57.2921 164.297 54.9955 164 52.6916 163.971C51.2644 163.95 49.8444 164.586 49.2938 165.99C48.7432 167.394 47.8955 168.443 46.8233 169.441C45.8959 170.31 45.9684 171.033 46.8305 172.01C47.642 172.922 48.7214 173.414 49.8879 173.457C51.5542 173.522 53.2278 173.378 54.8941 173.327C55.5823 173.305 56.2778 173.197 56.9516 173.291C58.3571 173.493 59.7481 173.812 60.8494 174.029C62.6388 173.812 64.0878 173.718 65.5006 173.443C66.5293 173.247 67.0655 172.321 67.1017 171.243C67.1307 170.252 66.4786 169.948 65.7107 169.774Z" fill="black"/>
<path d="M66.87 167.611C66.7034 167.56 66.5512 167.495 66.3484 167.423C65.7615 165.245 64.5299 163.573 62.3709 162.727C60.2844 161.909 58.0892 161.844 55.8868 161.837C55.0319 161.83 54.1697 161.895 53.3293 161.772C50.8081 161.395 47.8957 162.799 47.0118 165.071C46.6351 166.048 46.0555 166.699 45.2803 167.343C43.0416 169.203 42.8532 171.431 44.621 173.747C45.5049 174.904 46.6785 175.592 48.084 175.903C50.2575 176.38 52.4382 176.424 54.6407 176.077C55.2637 175.975 55.9085 175.917 56.5243 175.968C57.7849 176.069 59.031 176.38 60.2844 176.395C62.5955 176.424 64.9211 176.409 67.1381 175.57C68.9927 174.868 70.0288 173.24 69.9346 171.229C69.8476 169.181 69.0507 168.248 66.87 167.611ZM65.4935 173.443C64.0807 173.718 62.639 173.812 60.8423 174.029C59.7483 173.812 58.3573 173.501 56.9445 173.291C56.278 173.19 55.5752 173.305 54.887 173.327C53.2134 173.378 51.5471 173.522 49.8808 173.457C48.7143 173.414 47.6276 172.922 46.8162 172.01C45.954 171.033 45.8816 170.31 46.8089 169.441C47.8812 168.443 48.7216 167.387 49.2794 165.99C49.8373 164.586 51.25 163.95 52.6773 163.971C54.9812 164.008 57.2778 164.297 59.5744 164.521C60.0816 164.572 60.5814 164.789 61.0741 164.941C62.5158 165.368 63.5229 166.222 63.8272 167.756C64.0373 168.819 64.5951 169.528 65.6963 169.782C66.4643 169.955 67.1163 170.259 67.0873 171.25C67.0584 172.321 66.5295 173.247 65.4935 173.443Z" fill="black"/>
<path d="M413.769 89.206C413.081 89.1337 412.632 88.8587 412.146 88.3812C410.487 86.7387 408.567 86.5795 406.626 87.7734C406.155 88.0628 405.604 88.2799 405.061 88.3812C403.815 88.6055 402.8 89.2277 401.859 90.0237C400.236 91.3912 400.214 94.7413 402.837 95.5155C403.496 95.7109 404.17 95.8918 404.829 96.0944C405.256 96.2246 405.749 96.3042 406.097 96.5574C407.14 97.3099 408.292 97.5632 409.553 97.5415C411.378 97.2376 413.4 97.5487 414.776 95.8122C414.907 95.653 415.167 95.5806 415.385 95.501C417.276 94.7775 417.884 93.2001 416.906 91.4201C416.225 90.1901 415.196 89.358 413.769 89.206ZM413.994 93.6415C413.508 93.9454 412.936 94.148 412.523 94.5242C411.154 95.7543 409.683 95.4576 408.379 94.6255C407.27 93.9164 406.184 93.4389 404.865 93.3665C404.344 93.3376 403.836 93.012 403.199 92.7804C403.728 91.3767 404.59 90.7762 405.648 90.6532C406.452 90.5591 407.046 90.2624 407.662 89.8138C408.966 88.8587 409.415 88.8732 410.473 90.0164C411.183 90.7834 411.922 91.2609 413.008 91.2682C413.414 91.2682 413.878 91.5576 414.204 91.847C414.928 92.4982 414.834 93.1205 413.994 93.6415Z" fill="black"/>
<path d="M533.563 190.794C535.063 190.454 536.338 190.794 537.7 191.445C539.417 192.263 541.359 192.415 543.032 191.43C544.104 190.794 545.148 190.671 546.3 190.577C547.328 190.497 548.357 190.338 549.371 190.114C549.828 190.012 550.241 189.679 550.639 189.47C550.306 188.377 549.509 188.095 548.777 187.784C547.162 187.089 545.459 186.901 543.699 186.995C542.873 187.038 541.924 186.952 541.228 186.568C539.279 185.504 538.279 185.36 536.715 186.778C535.708 187.69 534.599 188.08 533.36 188.363C532.411 188.58 531.484 188.876 530.846 189.853C531.585 190.996 532.614 191.011 533.563 190.794Z" fill="black"/>
<path d="M530.513 192.205C531.571 192.805 532.701 192.856 533.882 192.791C534.505 192.755 535.193 192.697 535.737 192.914C537.222 193.507 538.721 193.811 540.323 193.594C541.511 193.515 542.808 193.92 543.815 192.994C544.612 192.263 545.503 192.096 546.524 192.161C547.27 192.212 548.06 192.299 548.777 192.133C549.712 191.908 550.683 191.597 551.458 191.062C552.661 190.23 552.748 188.775 551.69 187.762C551.045 187.14 550.219 186.554 549.371 186.315C547.662 185.837 545.887 185.534 544.126 185.302C543.315 185.194 542.619 185.143 541.938 184.535C540.736 183.45 539.243 183.204 537.722 183.819C536.932 184.137 536.135 184.564 535.497 185.121C534.73 185.787 533.998 186.272 532.94 186.387C532.1 186.481 531.281 186.879 530.499 187.241C529.419 187.733 528.767 188.587 528.774 189.824C528.789 191.004 529.571 191.662 530.513 192.205ZM533.353 188.37C534.599 188.088 535.7 187.69 536.707 186.785C538.272 185.367 539.272 185.512 541.221 186.576C541.916 186.959 542.873 187.046 543.691 187.002C545.459 186.908 547.154 187.104 548.77 187.791C549.495 188.102 550.299 188.384 550.632 189.477C550.226 189.687 549.821 190.02 549.364 190.121C548.357 190.345 547.321 190.504 546.292 190.584C545.14 190.671 544.104 190.801 543.025 191.438C541.351 192.429 539.41 192.27 537.693 191.452C536.331 190.808 535.063 190.468 533.556 190.801C532.607 191.011 531.578 190.997 530.832 189.861C531.477 188.884 532.411 188.58 533.353 188.37Z" fill="black"/>
<path d="M274.175 114.56C277.036 115.501 279.956 115.739 282.861 114.842C284.013 114.488 284.94 114.459 285.94 115.204C286.527 115.638 287.259 115.949 287.969 116.123C290.396 116.731 292.881 116.839 295.373 116.644C295.757 116.615 296.242 116.521 296.481 116.275C297.655 115.052 299.126 115.016 300.662 115.045C301.582 115.059 302.516 115.03 303.429 114.922C303.886 114.871 304.313 114.611 304.871 114.401C304.132 113.294 303.197 113.04 302.227 112.86C301.321 112.693 300.466 112.447 300.017 111.673C300.524 110.884 300.937 110.233 301.401 109.517C300.995 109.271 300.763 109.017 300.517 108.996C299.148 108.902 297.771 108.858 296.402 108.808C296.011 108.793 295.525 108.974 295.228 108.808C293.113 107.621 290.729 107.368 288.44 106.89C286.476 106.485 284.426 106.478 282.412 106.391C281.325 106.34 280.369 106.753 279.825 107.802C279.268 108.865 278.427 109.357 277.188 109.423C275.928 109.488 274.638 109.741 273.631 110.609C272.907 111.231 271.871 111.796 272.088 112.939C272.276 113.952 273.312 114.27 274.175 114.56Z" fill="black"/>
<path d="M270.77 115.798C271.545 116.376 272.458 116.832 273.371 117.143C276.153 118.106 279.029 118.287 281.927 117.787C283.238 117.563 284.477 117.266 285.716 118.135C286.201 118.482 286.911 118.619 287.527 118.67C289.773 118.865 292.026 119.068 294.279 119.104C295.294 119.119 296.518 119.046 297.286 118.504C298.634 117.563 300.01 117.751 301.423 117.744C302.118 117.737 302.828 117.816 303.502 117.708C304.227 117.592 304.994 117.411 305.625 117.057C307.385 116.072 307.69 114.141 306.313 112.679C305.69 112.013 304.9 111.507 304.082 110.848C304.19 107.947 303.256 106.789 300.387 106.5C299.372 106.398 298.322 106.637 297.293 106.659C296.815 106.666 296.228 106.673 295.866 106.427C293.265 104.626 290.331 103.859 287.252 103.519C284.738 103.244 282.267 103.396 279.963 104.539C279.319 104.857 278.623 105.328 278.254 105.914C277.746 106.739 277.138 106.963 276.254 106.941C273.66 106.883 271.726 108.222 270.132 110.067C268.451 112.006 268.712 114.278 270.77 115.798ZM273.624 110.602C274.631 109.734 275.921 109.481 277.181 109.416C278.42 109.351 279.268 108.859 279.819 107.795C280.369 106.746 281.318 106.333 282.412 106.384C284.426 106.471 286.477 106.478 288.433 106.883C290.722 107.361 293.106 107.614 295.221 108.801C295.518 108.967 295.996 108.786 296.395 108.801C297.764 108.851 299.141 108.895 300.51 108.989C300.756 109.003 300.988 109.257 301.394 109.503C300.93 110.219 300.517 110.87 300.01 111.659C300.459 112.44 301.314 112.679 302.22 112.845C303.191 113.026 304.118 113.28 304.864 114.387C304.313 114.596 303.879 114.857 303.422 114.908C302.502 115.009 301.575 115.045 300.655 115.031C299.126 115.002 297.655 115.045 296.475 116.261C296.235 116.514 295.75 116.601 295.359 116.63C292.867 116.825 290.389 116.716 287.962 116.109C287.252 115.928 286.513 115.624 285.933 115.19C284.933 114.444 284.006 114.473 282.854 114.828C279.949 115.725 277.029 115.486 274.168 114.546C273.305 114.264 272.269 113.938 272.074 112.918C271.864 111.789 272.9 111.225 273.624 110.602Z" fill="black"/>
<path d="M113.657 115.312C115.852 115.789 118.091 116.194 120.33 116.375C123.271 116.607 126.234 116.549 129.183 116.679C134.385 116.903 139.587 117.178 144.586 117.417C147.839 117.837 150.28 116.715 152.004 114.234C153.924 111.477 154.721 108.336 154.323 105.015C153.946 101.89 151.36 99.5379 148.215 99.3498C146.969 99.2775 146.346 98.6769 145.832 97.6856C142.658 91.5426 135.414 88.6049 128.951 89.4515C124.829 89.9941 121.33 91.7669 118.634 94.9722C117.961 95.7682 117.214 96.1806 116.135 96.2819C113.165 96.5713 110.984 98.25 109.332 100.623C107.224 103.655 107.572 107.012 108.412 110.319C109.093 112.996 110.948 114.718 113.657 115.312ZM110.919 105.29C111.151 102.447 112.744 100.442 115.418 99.4728C118.323 98.4164 120.88 99.2268 123.068 101.296C123.568 101.767 123.945 102.367 124.387 102.903C124.88 103.489 125.51 103.829 126.213 103.409C126.886 103.004 127.089 102.237 126.734 101.578C126.227 100.631 125.655 99.6465 124.872 98.9374C123.909 98.0546 122.699 97.4324 121.503 96.6292C127.01 90.3776 136.768 90.5802 141.818 97.1864C142.695 98.3296 143.528 99.5235 144.267 100.761C144.875 101.781 145.687 102.215 146.839 102.157C147.244 102.136 147.65 102.15 148.056 102.193C149.512 102.36 150.758 103.308 150.983 104.748C151.461 107.816 151.041 110.717 148.896 113.184C148.121 114.074 147.187 114.574 146.02 114.552C142.035 114.48 138.051 114.393 134.066 114.27C131.175 114.183 128.285 114.002 125.394 113.893C121.569 113.756 117.794 113.3 114.041 112.555C112.397 112.229 111.404 111.39 111.208 109.747C111.035 108.271 110.796 106.759 110.919 105.29Z" fill="black"/>
<path d="M114.048 112.555C117.801 113.293 121.583 113.756 125.401 113.894C128.292 113.995 131.182 114.176 134.073 114.27C138.058 114.393 142.043 114.48 146.027 114.552C147.194 114.574 148.128 114.067 148.903 113.184C151.048 110.724 151.461 107.823 150.99 104.748C150.765 103.308 149.519 102.36 148.063 102.194C147.665 102.15 147.252 102.136 146.853 102.157C145.701 102.215 144.89 101.774 144.281 100.761C143.542 99.5236 142.709 98.3369 141.832 97.1865C136.783 90.5803 127.024 90.3777 121.518 96.6293C122.713 97.4325 123.916 98.0547 124.887 98.9375C125.669 99.6466 126.234 100.631 126.749 101.578C127.104 102.237 126.901 103.004 126.227 103.409C125.517 103.836 124.887 103.489 124.401 102.903C123.952 102.374 123.583 101.767 123.083 101.296C120.895 99.2269 118.33 98.4165 115.432 99.4729C112.759 100.45 111.158 102.447 110.933 105.298C110.81 106.766 111.049 108.279 111.23 109.755C111.411 111.39 112.404 112.229 114.048 112.555Z" fill="white"/>
<path d="M503.229 145.355C504.909 145.739 506.641 146.137 508.351 146.151C516.624 146.224 524.898 146.173 533.172 146.166C534.621 146.166 536.062 146.188 537.511 146.195C539.105 146.209 540.605 145.826 542.025 145.109C543.836 144.198 544.314 142.62 544.169 140.754C544.046 139.155 542.851 138.561 541.59 138.047C541.163 137.874 540.706 137.772 540.257 137.664C539.011 137.353 538.345 136.521 537.917 135.341C537.548 134.328 537.07 133.323 536.49 132.418C535.447 130.797 533.969 129.596 532.397 128.482C528.195 125.515 522.92 125.855 518.725 129.401C519.247 129.799 519.812 130.11 520.232 130.566C521.087 131.492 521.899 132.462 522.667 133.46C523.043 133.952 523.094 134.545 522.572 135.023C521.986 135.566 521.37 135.392 520.848 134.951C520.414 134.582 520.124 134.039 519.682 133.684C518.653 132.859 517.682 131.76 516.494 131.391C513.263 130.378 510.119 130.841 507.163 132.606C504.279 134.328 502.852 137.042 501.903 140.081C501.613 141.007 501.454 141.998 501.425 142.96C501.388 144.342 501.888 145.052 503.229 145.355Z" fill="white"/>
<path d="M413.008 91.2612C411.922 91.254 411.183 90.7764 410.473 90.0094C409.408 88.8662 408.966 88.8517 407.662 89.8068C407.046 90.2554 406.444 90.5593 405.647 90.6462C404.59 90.7692 403.728 91.3697 403.199 92.7734C403.844 93.0122 404.351 93.3306 404.872 93.3595C406.184 93.4391 407.27 93.9094 408.386 94.6185C409.683 95.4506 411.161 95.7401 412.53 94.5172C412.95 94.141 413.515 93.9384 414.001 93.6345C414.841 93.1135 414.935 92.4912 414.211 91.84C413.885 91.5579 413.414 91.2684 413.008 91.2612Z" fill="white"/>
</g>
<defs>
<clipPath id="clip0">
<rect width="519.429" height="420" fill="white" transform="translate(33 87)"/>
</clipPath>
</defs>
</svg>
