<svg width="49" height="47" viewBox="0 0 49 47" fill="none" xmlns="http://www.w3.org/2000/svg">
<path d="M24.5 0C25.428 0 26.2763 0.526603 26.6913 1.36026L33.0096 14.0523L46.9026 16.0819C47.8253 16.2167 48.5919 16.8659 48.88 17.7566C49.1682 18.6473 48.9279 19.6251 48.2603 20.2789L38.1488 30.1808L40.4234 44.1419C40.5737 45.0646 40.1905 45.9931 39.4343 46.5383C38.678 47.0835 37.6795 47.1512 36.8572 46.7129L24.5 40.1273L12.1428 46.7129C11.3205 47.1512 10.322 47.0835 9.56574 46.5383C8.80952 45.9931 8.42625 45.0646 8.57658 44.1419L10.8512 30.1808L0.739724 20.2789C0.0720872 19.6251 -0.16816 18.6473 0.119975 17.7566C0.40811 16.8659 1.17467 16.2167 2.09741 16.0819L15.9904 14.0523L22.3087 1.36026C22.7237 0.526603 23.572 0 24.5 0ZM24.5 7.9631L19.8007 17.4028C19.4422 18.1231 18.7554 18.6216 17.962 18.7375L7.7136 20.2347L15.1854 27.5516C15.7579 28.1123 16.022 28.9183 15.8929 29.7109L14.21 40.0398L23.3516 35.1679C24.0698 34.7852 24.9302 34.7852 25.6483 35.1679L34.79 40.0398L33.1071 29.7109C32.978 28.9183 33.2421 28.1123 33.8146 27.5516L41.2864 20.2347L31.038 18.7375C30.2446 18.6216 29.5578 18.1231 29.1993 17.4028L24.5 7.9631Z" fill="#23222C"/>
</svg>
